<svg xmlns="http://www.w3.org/2000/svg" width="1024" height="1024" viewBox="0 0 1024 1024" fill="none" role="img" aria-label="OpenCloud logo mark">
  <defs>
    <linearGradient id="cloudGradient" x1="178" y1="258" x2="828" y2="741" gradientUnits="userSpaceOnUse">
      <stop stop-color="#8B5CF6"/>
      <stop offset="0.47" stop-color="#4F7DFF"/>
      <stop offset="1" stop-color="#22D3EE"/>
    </linearGradient>
    <linearGradient id="edgeGlow" x1="238" y1="298" x2="736" y2="732" gradientUnits="userSpaceOnUse">
      <stop stop-color="#FFFFFF" stop-opacity="0.58"/>
      <stop offset="0.55" stop-color="#FFFFFF" stop-opacity="0"/>
      <stop offset="1" stop-color="#D7FBFF" stop-opacity="0.36"/>
    </linearGradient>
    <filter id="softShadow" x="114" y="206" width="796" height="608" filterUnits="userSpaceOnUse" color-interpolation-filters="sRGB">
      <feDropShadow dx="0" dy="30" stdDeviation="35" flood-color="#0F172A" flood-opacity="0.24"/>
    </filter>
    <mask id="openRouteMask" maskUnits="userSpaceOnUse" x="0" y="0" width="1024" height="1024">
      <rect width="1024" height="1024" fill="white"/>
      <path d="M356 570H488C525.555 570 556 539.555 556 502V392" stroke="black" stroke-width="58" stroke-linecap="round" stroke-linejoin="round"/>
      <path d="M556 330L459 444H653L556 330Z" fill="black"/>
    </mask>
  </defs>
  <g filter="url(#softShadow)">
    <path mask="url(#openRouteMask)" d="M308 696C238.859 696 183 640.516 183 571.839C183 512.606 224.534 462.981 280.486 450.408C301.009 358.089 383.747 289 482.625 289C553.925 289 616.78 324.815 653.816 379.359C665.978 376.493 678.659 374.973 691.696 374.973C774.21 374.973 841 441.308 841 523.259C841 604.992 774.21 671.544 691.696 671.544H662.182C636.763 687.08 606.858 696 574.964 696H308Z" fill="url(#cloudGradient)"/>
    <path mask="url(#openRouteMask)" d="M308 696C238.859 696 183 640.516 183 571.839C183 512.606 224.534 462.981 280.486 450.408C301.009 358.089 383.747 289 482.625 289C553.925 289 616.78 324.815 653.816 379.359C665.978 376.493 678.659 374.973 691.696 374.973C774.21 374.973 841 441.308 841 523.259C841 604.992 774.21 671.544 691.696 671.544H662.182C636.763 687.08 606.858 696 574.964 696H308Z" fill="url(#edgeGlow)" opacity="0.9"/>
    <path d="M304 456C326 360 406 300 502 304C434 320 374 374 352 456H304Z" fill="#FFFFFF" opacity="0.17"/>
    <circle cx="707" cy="493" r="54" fill="#FFFFFF" opacity="0.11"/>
  </g>
</svg>
