<svg width="187" height="60" viewBox="0 0 187 60" fill="none" xmlns="http://www.w3.org/2000/svg">
<path d="M35.6408 19.8197L30.2006 23.0997L27.4808 21.4797L32.9408 18.1997L30.161 16.5597L22.001 21.4997L30.2204 26.3997L38.4008 21.4597L35.6408 19.8197Z" fill="#09090B" style="fill:#09090B;fill:color(display-p3 0.0353 0.0353 0.0431);fill-opacity:1;"/>
<path fill-rule="evenodd" clip-rule="evenodd" d="M28.3005 28.8997L28.2801 28.8797L12.3003 19.0997L6.30029 37.5797L28.2801 51.2999L28.3005 51.3197V28.8997Z" fill="url(#paint0_linear_2796_81470)" style=""/>
<path fill-rule="evenodd" clip-rule="evenodd" d="M48.3003 19.1L30.3003 8.09998L12.3003 19.1L16.1205 21.44L30.3003 12.78L44.4603 21.44L32.3205 28.88L32.3001 28.9V51.3198L32.3205 51.3L54.3003 37.5798L48.3003 19.1Z" fill="url(#paint1_linear_2796_81470)" style=""/>
<path d="M77.5668 20.5247C79.1798 20.0192 80.9122 20.0429 82.5112 20.592C84.1094 21.1412 85.4916 22.1872 86.4545 23.5774L86.5795 23.7659L83.3598 26.0139L83.2338 25.8254C82.8654 25.2915 82.3727 24.8551 81.7983 24.554C81.2238 24.2527 80.5845 24.0954 79.936 24.096C78.8721 24.1002 77.8534 24.5263 77.103 25.2805C76.3527 26.0347 75.9312 27.0559 75.9311 28.1204V31.8782C75.9311 32.7311 76.2035 33.5618 76.7075 34.2493C77.2114 34.9366 77.9214 35.4455 78.7338 35.7014C79.5467 35.9573 80.4196 35.947 81.226 35.6721C82.0325 35.3976 82.7312 34.8721 83.2192 34.1731L83.3598 33.969L86.5795 36.2327L86.4379 36.4221C85.5034 37.862 84.1226 38.9564 82.5082 39.5374C80.894 40.1176 79.1342 40.1528 77.4975 39.6379C75.861 39.1224 74.4377 38.0848 73.4457 36.6838C72.4538 35.2824 71.9474 33.5946 72.0043 31.8782V28.1047C72.0034 26.4129 72.543 24.7652 73.5434 23.4016C74.5439 22.038 75.9539 21.0302 77.5668 20.5247Z" fill="#09090B" style="fill:#09090B;fill:color(display-p3 0.0353 0.0353 0.0431);fill-opacity:1;"/>
<path d="M125.612 20.3596C127.248 19.8465 129.007 19.8832 130.62 20.4641C132.232 21.0451 133.611 22.1387 134.545 23.5774L134.686 23.7659L131.466 26.0139L131.326 25.8254C130.959 25.2927 130.469 24.8572 129.897 24.5559C129.325 24.2547 128.689 24.0966 128.043 24.096C126.99 24.1165 125.987 24.5496 125.25 25.302C124.513 26.0545 124.1 27.0674 124.1 28.1213V31.8782C124.101 32.7307 124.373 33.5618 124.877 34.2493C125.381 34.9366 126.091 35.4455 126.904 35.7014C127.716 35.9573 128.59 35.9471 129.396 35.6721C130.202 35.3976 130.9 34.872 131.388 34.1731L131.53 33.97L134.671 36.2327L134.545 36.4221C133.611 37.8621 132.23 38.9564 130.616 39.5374C129.001 40.1179 127.241 40.1529 125.604 39.6379C123.967 39.1224 122.544 38.0848 121.552 36.6838C120.56 35.2824 120.054 33.5946 120.111 31.8782V28.1047C120.058 26.3898 120.567 24.7043 121.56 23.3059C122.553 21.9076 123.976 20.8728 125.612 20.3596Z" fill="#09090B" style="fill:#09090B;fill:color(display-p3 0.0353 0.0353 0.0431);fill-opacity:1;"/>
<path d="M92.3901 35.887H99.4584V39.8176H88.4643V20.1653H92.3901V35.887Z" fill="#09090B" style="fill:#09090B;fill:color(display-p3 0.0353 0.0353 0.0431);fill-opacity:1;"/>
<path fill-rule="evenodd" clip-rule="evenodd" d="M118.713 39.8176H114.614L113.279 35.384H106.54L105.19 39.8176H101.091L107.028 20.1653H112.776L118.713 39.8176ZM107.719 31.4534H112.085L109.902 24.2376L107.719 31.4534Z" fill="#09090B" style="fill:#09090B;fill:color(display-p3 0.0353 0.0353 0.0431);fill-opacity:1;"/>
<path d="M140.293 27.0198L145.508 20.1653H150.455L143.89 28.7815L151.037 39.8176H146.356L141.362 32.0979L140.293 33.4973V39.8176H136.367V20.1653H140.293V27.0198Z" fill="#09090B" style="fill:#09090B;fill:color(display-p3 0.0353 0.0353 0.0431);fill-opacity:1;"/>
<path d="M157.962 26.3752L160.994 20.1653H165.36L159.925 31.3118V39.8176H155.999V31.3118L150.565 20.1653H154.931L157.962 26.3752Z" fill="#09090B" style="fill:#09090B;fill:color(display-p3 0.0353 0.0353 0.0431);fill-opacity:1;"/>
<path fill-rule="evenodd" clip-rule="evenodd" d="M181.523 39.8176H177.423L176.073 35.384H169.351L167.999 39.8176H163.901L169.837 20.1653H175.585L181.523 39.8176ZM170.529 31.4534H174.895L172.711 24.2376L170.529 31.4534Z" fill="#09090B" style="fill:#09090B;fill:color(display-p3 0.0353 0.0353 0.0431);fill-opacity:1;"/>
<path d="M186.892 20.1653V39.8176H182.965V20.1653H186.892Z" fill="#09090B" style="fill:#09090B;fill:color(display-p3 0.0353 0.0353 0.0431);fill-opacity:1;"/>
<defs>
<linearGradient id="paint0_linear_2796_81470" x1="6.30029" y1="52.1861" x2="37.6773" y2="35.2025" gradientUnits="userSpaceOnUse">
<stop offset="0.163462" stop-color="#888888" style="stop-color:#888888;stop-color:color(display-p3 0.5333 0.5333 0.5333);stop-opacity:1;"/>
<stop offset="0.857007" stop-color="#CCCCCC" style="stop-color:#CCCCCC;stop-color:color(display-p3 0.8000 0.8000 0.8000);stop-opacity:1;"/>
</linearGradient>
<linearGradient id="paint1_linear_2796_81470" x1="33.3003" y1="8.09998" x2="33.3003" y2="51.3198" gradientUnits="userSpaceOnUse">
<stop stop-color="#8D8D8D" style="stop-color:#8D8D8D;stop-color:color(display-p3 0.5529 0.5529 0.5529);stop-opacity:1;"/>
<stop offset="1" stop-color="#505050" style="stop-color:#505050;stop-color:color(display-p3 0.3137 0.3137 0.3137);stop-opacity:1;"/>
</linearGradient>
</defs>
</svg>
