<svg width="152" height="60" viewBox="0 0 152 60" fill="none" xmlns="http://www.w3.org/2000/svg">
<path d="M29.6406 10C30.869 10 32.0474 10.4879 32.916 11.3564C33.7843 12.2249 34.2724 13.4028 34.2725 14.6309C34.2725 15.3374 34.1101 16.0274 33.8076 16.6514H37.9414C42.5246 16.6514 46.242 20.3844 46.2422 24.9893V27.7676L48.6582 32.5947C48.7761 32.8299 48.8375 33.0894 48.8369 33.3525C48.8363 33.6155 48.7741 33.8748 48.6553 34.1094L46.2422 38.8828V41.6631C46.2421 46.2664 42.5247 50 37.9414 50H21.3398C16.755 49.9999 13.0401 46.2663 13.04 41.6631V38.8828L10.5732 34.125C10.4491 33.8866 10.3837 33.6213 10.3828 33.3525C10.382 33.084 10.4459 32.8191 10.5684 32.5801L13.0381 27.7676V24.9893C13.0383 20.3844 16.7557 16.6514 21.3389 16.6514H25.4736C25.1711 16.0274 25.0088 15.3375 25.0088 14.6309C25.0089 13.4027 25.4969 12.2249 26.3652 11.3564C27.2338 10.4878 28.4122 10 29.6406 10ZM35.5352 26C34.5301 26 33.5662 26.3988 32.8555 27.1094C32.1447 27.8201 31.7451 28.7849 31.7451 29.79V36.5264C31.7451 37.5315 32.1447 38.4953 32.8555 39.2061C33.5662 39.9168 34.53 40.3164 35.5352 40.3164C36.5403 40.3164 37.5041 39.9168 38.2148 39.2061C38.9256 38.4953 39.3252 37.5315 39.3252 36.5264V29.79C39.3252 29.2922 39.2267 28.7988 39.0361 28.3389C38.8456 27.8791 38.5668 27.4612 38.2148 27.1094C37.8628 26.7575 37.4443 26.4785 36.9844 26.2881C36.5244 26.0977 36.033 25.9998 35.5352 26ZM23.3252 26C22.3202 26 21.3562 26.3988 20.6455 27.1094C19.9347 27.8201 19.5352 28.7849 19.5352 29.79V36.5264C19.556 37.5175 19.9646 38.4607 20.6729 39.1543C21.3812 39.8479 22.3328 40.2373 23.3242 40.2373C24.3156 40.2373 25.2672 39.8479 25.9756 39.1543C26.6839 38.4607 27.0925 37.5175 27.1133 36.5264V29.79C27.1133 28.7852 26.7143 27.8211 26.0039 27.1104C25.2935 26.3997 24.33 26.0005 23.3252 26Z" fill="black" style="fill:black;fill-opacity:1;"/>
<path fill-rule="evenodd" clip-rule="evenodd" d="M143.558 39.986C142.428 39.986 141.391 39.797 140.45 39.421C139.551 39.0663 138.733 38.5325 138.047 37.852C137.376 37.1888 136.847 36.3957 136.493 35.521C136.13 34.5889 135.948 33.5963 135.956 32.596V32.016C135.956 30.82 136.145 29.737 136.522 28.766C136.898 27.796 137.416 26.968 138.076 26.28C138.723 25.6014 139.502 25.0629 140.365 24.698C141.249 24.3194 142.201 24.1267 143.162 24.132C144.265 24.132 145.24 24.321 146.087 24.698C146.935 25.065 147.647 25.578 148.221 26.238C148.796 26.906 149.229 27.702 149.521 28.626C149.813 29.549 149.959 30.556 149.959 31.649V33.105H139.362V33.175C139.465 33.845 139.625 34.405 139.842 34.857C140.059 35.309 140.355 35.714 140.732 36.072C141.109 36.449 141.552 36.741 142.06 36.948C142.578 37.155 143.144 37.258 143.756 37.258C144.594 37.258 145.376 37.098 146.102 36.778C146.805 36.4655 147.421 35.9856 147.896 35.38L149.704 37.132C149.196 37.866 148.414 38.526 147.359 39.11C146.313 39.694 145.045 39.986 143.558 39.986ZM143.148 26.873C142.668 26.873 142.221 26.963 141.806 27.142C141.401 27.312 141.038 27.556 140.718 27.877C140.398 28.207 140.129 28.602 139.913 29.064C139.685 29.5633 139.524 30.0905 139.433 30.632H146.624V30.406C146.624 29.963 146.544 29.526 146.384 29.092C146.234 28.666 146.004 28.2726 145.706 27.933C145.409 27.6023 145.042 27.3417 144.632 27.17C144.208 26.972 143.713 26.873 143.148 26.873ZM119.043 39.703V24.415H122.095L122.307 26.591C122.514 26.299 122.74 26.031 122.985 25.786C123.24 25.531 123.508 25.306 123.791 25.107C124.726 24.465 125.836 24.1248 126.97 24.132C127.7 24.1239 128.426 24.2388 129.118 24.472C129.753 24.6883 130.325 25.0567 130.785 25.545C131.246 26.035 131.605 26.662 131.859 27.425C132.113 28.178 132.24 29.092 132.24 30.165V39.703H128.863V30.223C128.863 29.591 128.793 29.063 128.651 28.64C128.51 28.216 128.303 27.877 128.03 27.622C127.75 27.3637 127.409 27.1792 127.04 27.085C126.608 26.9657 126.161 26.9085 125.712 26.915C125.298 26.915 124.912 26.972 124.554 27.085C123.933 27.261 123.375 27.6091 122.943 28.089C122.745 28.3058 122.57 28.5424 122.42 28.795V39.703H119.043ZM102.44 24.415H110.551V36.905H115.044V39.703H102.441V36.906H107.146V27.226H102.44V24.415ZM106.835 20.459C106.835 20.185 106.882 19.936 106.976 19.709C107.067 19.4791 107.207 19.2719 107.386 19.102C107.556 18.942 107.758 18.82 107.993 18.735C108.238 18.641 108.512 18.594 108.813 18.594C109.322 18.594 109.731 18.725 110.043 18.989C110.363 19.243 110.546 19.573 110.593 19.979C110.659 20.393 110.589 20.755 110.381 21.066C110.174 21.368 109.873 21.57 109.477 21.674C109.278 21.8534 109.034 21.9754 108.771 22.027C108.498 22.084 108.196 22.06 107.866 21.957C107.55 21.8699 107.275 21.6745 107.089 21.405C106.916 21.1201 106.828 20.792 106.835 20.459ZM84.9341 18H93.1721V36.906H97.8061V39.703H84.9341V36.906H89.7661V20.812H84.9341V18ZM80.7101 33.373C80.6151 34.372 80.3801 35.281 80.0031 36.1C79.6467 36.8814 79.1428 37.5866 78.5191 38.177C77.878 38.7732 77.1237 39.2346 76.3011 39.534C75.4531 39.844 74.5111 40 73.4751 40C72.6271 40 71.8451 39.887 71.1291 39.661C70.4475 39.4382 69.8078 39.1037 69.2361 38.671C68.6946 38.2711 68.218 37.7901 67.8231 37.245C67.4207 36.6673 67.0843 36.0465 66.8201 35.394C66.5461 34.734 66.3401 34.019 66.1981 33.246C66.064 32.4477 65.9977 31.6395 66.0001 30.83V28.018C66.0001 27.218 66.0661 26.445 66.1981 25.701C66.3301 24.957 66.5281 24.255 66.7911 23.595C67.0609 22.8842 67.4274 22.2139 67.8801 21.603C68.318 21.0144 68.8422 20.4952 69.4351 20.063C69.9991 19.6728 70.6178 19.3681 71.2711 19.159C71.9894 18.9363 72.738 18.8267 73.4901 18.834C74.5731 18.834 75.5391 18.994 76.3861 19.314C77.2441 19.634 77.9741 20.087 78.5761 20.671C79.1992 21.2799 79.6901 22.0108 80.0181 22.818C80.3761 23.657 80.6061 24.589 80.7101 25.616H77.3191C77.2731 25.0521 77.1544 24.4965 76.9661 23.963C76.7961 23.463 76.5611 23.04 76.2591 22.691C75.9455 22.3407 75.5535 22.0696 75.1151 21.9C74.6621 21.712 74.1211 21.617 73.4901 21.617C73.0471 21.617 72.6471 21.679 72.2891 21.801C71.9401 21.923 71.6291 22.098 71.3561 22.324C70.9674 22.6104 70.6445 22.9766 70.4091 23.398C70.1528 23.8587 69.9492 24.3468 69.8021 24.853C69.6791 25.324 69.5851 25.828 69.5191 26.365C69.4622 26.9048 69.4341 27.4472 69.4351 27.99V30.83C69.4351 31.518 69.4721 32.163 69.5481 32.766C69.6321 33.368 69.7601 33.92 69.9291 34.419C70.0611 34.833 70.2261 35.21 70.4241 35.549C70.6311 35.889 70.8761 36.18 71.1581 36.425C71.4501 36.689 71.7851 36.891 72.1621 37.033C72.5481 37.165 72.9861 37.231 73.4761 37.231C74.0601 37.231 74.5781 37.146 75.0301 36.976C75.4821 36.806 75.8681 36.557 76.1891 36.227C76.4991 35.907 76.7491 35.507 76.9371 35.027C77.1261 34.546 77.2481 33.995 77.3051 33.373H80.7101Z" fill="black" style="fill:black;fill-opacity:1;"/>
</svg>
