<svg width="153" height="60" viewBox="0 0 153 60" fill="none" xmlns="http://www.w3.org/2000/svg">
<path d="M47.1245 26.4625C47.4582 25.4731 47.6284 24.4372 47.6286 23.3944C47.6285 21.669 47.1627 19.9747 46.2791 18.4858C44.5036 15.4364 41.21 13.5537 37.6454 13.5537C36.9432 13.5537 36.2429 13.6269 35.5562 13.772C34.6327 12.7453 33.499 11.9234 32.23 11.3605C30.9609 10.7977 29.5854 10.5066 28.1941 10.5066H28.1316L28.1081 10.5067C23.7908 10.5067 19.9621 13.2555 18.6349 17.3077C17.2611 17.5854 15.9633 18.1494 14.8283 18.962C13.6933 19.7746 12.7473 20.817 12.0537 22.0196C11.1728 23.5175 10.7085 25.2185 10.708 26.9503C10.7083 29.3842 11.624 31.7314 13.2777 33.5373C12.9439 34.5267 12.7736 35.5626 12.7735 36.6054C12.7736 38.3308 13.2394 40.0251 14.123 41.514C15.1737 43.3191 16.7783 44.7483 18.7054 45.5954C20.6325 46.4426 22.7825 46.664 24.8453 46.2277C25.769 47.2544 26.9028 48.0763 28.1719 48.6392C29.441 49.202 30.8166 49.4931 32.208 49.4932H32.2705L32.2959 49.4931C36.6155 49.4931 40.443 46.7442 41.7702 42.6883C43.144 42.4105 44.4418 41.8465 45.5768 41.0339C46.7118 40.2212 47.6579 39.1788 48.3516 37.9763C49.2315 36.4797 49.6949 34.7801 49.6946 33.0499C49.6943 30.6161 48.7786 28.2689 47.125 26.463L47.1245 26.4625ZM32.273 46.9444H32.2628C30.5343 46.9438 28.8607 46.3455 27.533 45.2535C27.6119 45.2116 27.6898 45.1681 27.7667 45.1229L35.634 40.639C35.8304 40.5287 35.9936 40.3691 36.1072 40.1764C36.2208 39.9838 36.2807 39.7648 36.2807 39.5419V28.5907L39.6061 30.4852C39.6235 30.4938 39.6386 30.5065 39.6498 30.5222C39.6611 30.5379 39.6683 30.5561 39.6708 30.5752V39.6382C39.6662 43.6676 36.357 46.9362 32.273 46.9444ZM16.3638 40.24C15.7139 39.1314 15.3716 37.8733 15.3711 36.5926C15.3711 36.1749 15.4081 35.756 15.4801 35.3445C15.5386 35.379 15.6407 35.4405 15.7139 35.4821L23.5813 39.9659C23.7774 40.0789 24.0005 40.1384 24.2276 40.1384C24.4547 40.1383 24.6777 40.0787 24.8738 39.9657L34.479 34.4934V38.2825L34.4792 38.2891C34.4792 38.3073 34.4749 38.3253 34.4666 38.3416C34.4584 38.3579 34.4464 38.3721 34.4316 38.3831L26.4784 42.9139C25.3531 43.553 24.0775 43.8895 22.7791 43.8898C21.4793 43.8897 20.2025 43.5523 19.0765 42.9117C17.9505 42.271 17.015 41.3495 16.3638 40.2396V40.24ZM14.2941 23.2936C15.1581 21.8127 16.5225 20.6788 18.1484 20.0904C18.1484 20.1572 18.1445 20.2756 18.1445 20.3578V29.3257L18.1444 29.333C18.1444 29.5557 18.2042 29.7744 18.3176 29.9669C18.431 30.1594 18.594 30.3189 18.7901 30.4291L28.3953 35.9006L25.0701 37.7951C25.0537 37.8058 25.0349 37.8123 25.0153 37.814C24.9958 37.8158 24.9761 37.8128 24.958 37.8052L17.004 33.2705C15.8796 32.6278 14.9461 31.7048 14.2972 30.594C13.6482 29.4832 13.3065 28.2236 13.3064 26.9414C13.3069 25.6613 13.6476 24.4036 14.2945 23.294L14.2941 23.2936ZM41.615 29.5667L32.0098 24.0946L35.3351 22.2007C35.3515 22.1901 35.3703 22.1835 35.3899 22.1818C35.4095 22.18 35.4292 22.1831 35.4473 22.1907L43.4011 26.7215C44.5264 27.3632 45.4609 28.2857 46.1107 29.3964C46.7604 30.5071 47.1026 31.7669 47.1029 33.0494C47.1029 36.1103 45.1671 38.8493 42.2564 39.9064V30.6704C42.2568 30.667 42.2568 30.6635 42.2568 30.6601C42.2568 30.4383 42.1974 30.2203 42.0847 30.0284C41.972 29.8364 41.81 29.6772 41.615 29.5667ZM44.9247 24.6517C44.8474 24.6049 44.7695 24.5591 44.691 24.5142L36.8237 20.0302C36.6275 19.9174 36.4046 19.858 36.1776 19.8579C35.9505 19.858 35.7276 19.9174 35.5314 20.0302L25.9261 25.5025V21.7133L25.9259 21.7068C25.9259 21.6698 25.9437 21.6349 25.9737 21.6127L33.9268 17.0857C35.0518 16.4458 36.3275 16.1089 37.626 16.1089C41.7153 16.1089 45.0315 19.381 45.0315 23.4158C45.0313 23.8298 44.9956 24.2431 44.9247 24.6513V24.6517ZM24.1182 31.4052L20.7921 29.5107C20.7747 29.5021 20.7597 29.4894 20.7484 29.4737C20.7371 29.458 20.7299 29.4398 20.7274 29.4207V20.3575C20.7292 16.3249 24.0455 13.0555 28.1329 13.0555C29.8641 13.0559 31.5405 13.6543 32.8713 14.7468C32.8114 14.7791 32.707 14.836 32.6376 14.8775L24.7702 19.3614C24.5739 19.4715 24.4107 19.6311 24.2971 19.8237C24.1836 20.0163 24.1237 20.2351 24.1237 20.458V20.4652L24.1182 31.4052ZM25.9246 27.5624L30.2026 25.1244L34.4805 27.5607V32.4351L30.2026 34.8716L25.9246 32.4351V27.5624Z" fill="black" style="fill:black;fill-opacity:1;"/>
<path d="M85.1506 26.2585H82.0483C81.929 25.5956 81.7069 25.0123 81.3821 24.5085C81.0573 24.0047 80.6596 23.5772 80.1889 23.2259C79.7183 22.8745 79.1913 22.6094 78.608 22.4304C78.0313 22.2514 77.4181 22.1619 76.7685 22.1619C75.5952 22.1619 74.5445 22.4569 73.6165 23.0469C72.6951 23.6368 71.9659 24.5019 71.429 25.642C70.8987 26.7822 70.6335 28.1742 70.6335 29.8182C70.6335 31.4754 70.8987 32.8741 71.429 34.0142C71.9659 35.1544 72.6984 36.0161 73.6264 36.5994C74.5545 37.1828 75.5985 37.4744 76.7585 37.4744C77.4015 37.4744 78.0114 37.3883 78.5881 37.2159C79.1714 37.0369 79.6984 36.7751 80.169 36.4304C80.6397 36.0857 81.0374 35.6648 81.3622 35.1676C81.6937 34.6638 81.9223 34.0871 82.0483 33.4375L85.1506 33.4474C84.9848 34.4484 84.6634 35.3698 84.1861 36.2116C83.7154 37.0469 83.1089 37.7694 82.3665 38.3793C81.6307 38.9825 80.7888 39.4498 79.8409 39.7812C78.893 40.1127 77.8589 40.2784 76.7386 40.2784C74.9754 40.2784 73.4044 39.8608 72.0256 39.0256C70.6468 38.1837 69.5597 36.9806 68.7642 35.4162C67.9754 33.8518 67.581 31.9858 67.581 29.8182C67.581 27.6439 67.9787 25.7779 68.7741 24.2202C69.5696 22.6558 70.6567 21.456 72.0355 20.6207C73.4143 19.7789 74.982 19.358 76.7386 19.358C77.8191 19.358 78.8267 19.5137 79.7614 19.8253C80.7027 20.1302 81.5478 20.581 82.2969 21.1776C83.0459 21.7675 83.6657 22.4901 84.1562 23.3452C84.6468 24.1937 84.9782 25.1648 85.1506 26.2585ZM95.0217 40.3082C93.5898 40.3082 92.3403 39.9801 91.2731 39.3239C90.2058 38.6676 89.3772 37.7495 88.7873 36.5696C88.1973 35.3897 87.9023 34.0109 87.9023 32.4332C87.9023 30.849 88.1973 29.4635 88.7873 28.277C89.3772 27.0904 90.2058 26.169 91.2731 25.5128C92.3403 24.8565 93.5898 24.5284 95.0217 24.5284C96.4535 24.5284 97.703 24.8565 98.7702 25.5128C99.8375 26.169 100.666 27.0904 101.256 28.277C101.846 29.4635 102.141 30.849 102.141 32.4332C102.141 34.0109 101.846 35.3897 101.256 36.5696C100.666 37.7495 99.8375 38.6676 98.7702 39.3239C97.703 39.9801 96.4535 40.3082 95.0217 40.3082ZM95.0316 37.8125C95.9596 37.8125 96.7286 37.5672 97.3384 37.0767C97.9483 36.5862 98.399 35.9332 98.6907 35.1179C98.989 34.3026 99.1381 33.4044 99.1381 32.4233C99.1381 31.4489 98.989 30.554 98.6907 29.7386C98.399 28.9167 97.9483 28.2571 97.3384 27.7599C96.7286 27.2628 95.9596 27.0142 95.0316 27.0142C94.0969 27.0142 93.3214 27.2628 92.7049 27.7599C92.0951 28.2571 91.641 28.9167 91.3427 29.7386C91.051 30.554 90.9052 31.4489 90.9052 32.4233C90.9052 33.4044 91.051 34.3026 91.3427 35.1179C91.641 35.9332 92.0951 36.5862 92.7049 37.0767C93.3214 37.5672 94.0969 37.8125 95.0316 37.8125ZM111.177 40.2983C109.944 40.2983 108.844 39.9834 107.876 39.3537C106.915 38.7173 106.159 37.8125 105.609 36.6392C105.065 35.4593 104.793 34.044 104.793 32.3935C104.793 30.7429 105.068 29.331 105.619 28.1577C106.175 26.9844 106.938 26.0862 107.906 25.4631C108.873 24.84 109.97 24.5284 111.197 24.5284C112.145 24.5284 112.907 24.6875 113.484 25.0057C114.067 25.3172 114.518 25.6818 114.836 26.0994C115.161 26.517 115.413 26.8849 115.592 27.2031H115.771V19.6364H118.744V40H115.84V37.6236H115.592C115.413 37.9484 115.154 38.3196 114.816 38.7372C114.485 39.1548 114.027 39.5194 113.444 39.831C112.861 40.1425 112.105 40.2983 111.177 40.2983ZM111.833 37.7628C112.688 37.7628 113.411 37.5374 114.001 37.0866C114.597 36.6293 115.048 35.9962 115.353 35.1875C115.665 34.3788 115.82 33.4375 115.82 32.3636C115.82 31.303 115.668 30.375 115.363 29.5795C115.058 28.7841 114.611 28.1643 114.021 27.7202C113.431 27.276 112.701 27.054 111.833 27.054C110.938 27.054 110.192 27.286 109.596 27.75C108.999 28.214 108.549 28.8471 108.244 29.6491C107.945 30.4512 107.796 31.3561 107.796 32.3636C107.796 33.3845 107.949 34.3026 108.254 35.1179C108.558 35.9332 109.009 36.5795 109.606 37.0568C110.209 37.5275 110.951 37.7628 111.833 37.7628ZM129.569 40.3082C128.065 40.3082 126.769 39.9867 125.681 39.3438C124.601 38.6941 123.766 37.7827 123.176 36.6094C122.592 35.4295 122.301 34.0473 122.301 32.4631C122.301 30.8987 122.592 29.5199 123.176 28.3267C123.766 27.1335 124.588 26.2022 125.642 25.5327C126.702 24.8632 127.942 24.5284 129.36 24.5284C130.222 24.5284 131.057 24.6709 131.866 24.956C132.675 25.241 133.401 25.6884 134.044 26.2983C134.687 26.9081 135.194 27.7003 135.565 28.6747C135.936 29.6425 136.122 30.8191 136.122 32.2045V33.2585H123.981V31.0312H133.208C133.208 30.2491 133.049 29.5563 132.731 28.9531C132.413 28.3433 131.966 27.8627 131.389 27.5114C130.819 27.16 130.149 26.9844 129.38 26.9844C128.545 26.9844 127.816 27.1899 127.193 27.6009C126.576 28.0052 126.099 28.5355 125.761 29.1918C125.43 29.8414 125.264 30.5473 125.264 31.3097V33.0497C125.264 34.0705 125.443 34.9389 125.801 35.6548C126.165 36.3707 126.672 36.9176 127.322 37.2955C127.972 37.6667 128.731 37.8523 129.599 37.8523C130.163 37.8523 130.676 37.7727 131.14 37.6136C131.604 37.4479 132.005 37.2027 132.343 36.8778C132.681 36.553 132.94 36.152 133.119 35.6747L135.933 36.1818C135.708 37.0104 135.303 37.7363 134.72 38.3594C134.143 38.9759 133.417 39.4564 132.542 39.8011C131.674 40.1392 130.683 40.3082 129.569 40.3082ZM141.412 24.7273L144.782 30.6733L148.183 24.7273H151.434L146.672 32.3636L151.474 40H148.223L144.782 34.2926L141.352 40H138.091L142.843 32.3636L138.15 24.7273H141.412Z" fill="black" style="fill:black;fill-opacity:1;"/>
</svg>
