<svg width="211" height="60" viewBox="0 0 211 60" fill="none" xmlns="http://www.w3.org/2000/svg">
<path d="M52.7454 16.205C52.2581 15.9668 52.0484 16.4208 51.7635 16.6512C51.666 16.7256 51.5834 16.8222 51.5012 16.9113C50.789 17.6701 49.9569 18.1685 48.8699 18.109C47.2809 18.0198 45.9237 18.5181 44.7244 19.7305C44.4695 18.2355 43.6225 17.3425 42.3332 16.77C41.6585 16.4725 40.9764 16.1748 40.504 15.5277C40.1742 15.0666 40.0843 14.5533 39.9194 14.0474C39.8145 13.7426 39.7093 13.4301 39.357 13.3778C38.9747 13.3183 38.8245 13.638 38.6749 13.9062C38.0751 14.9997 37.8427 16.2047 37.8654 17.4245C37.918 20.1695 39.0798 22.3562 41.3888 23.9111C41.6511 24.0897 41.7184 24.2681 41.6362 24.5285C41.4788 25.0642 41.2914 25.5847 41.1265 26.1205C41.0215 26.4627 40.8638 26.537 40.4966 26.3883C39.2298 25.8604 38.1351 25.079 37.168 24.1345C35.5263 22.5499 34.0421 20.8018 32.1904 19.433C31.7619 19.1169 31.3218 18.8167 30.871 18.533C28.982 16.7031 31.1185 15.2003 31.6132 15.0219C32.1304 14.8358 31.7932 14.1962 30.1212 14.2037C28.4495 14.2111 26.9202 14.7689 24.9713 15.5128C24.6863 15.6246 24.3866 15.7064 24.0791 15.7731C22.31 15.4383 20.4734 15.3639 18.5542 15.5795C14.9408 15.981 12.0549 17.6847 9.9335 20.5933C7.38484 24.09 6.78494 28.0621 7.51965 32.2055C8.29175 36.5719 10.5256 40.1872 13.959 43.0141C17.5198 45.9445 21.6205 47.3804 26.298 47.1051C29.1391 46.9416 32.3027 46.5624 35.8709 43.5494C36.7706 43.9956 37.715 44.1743 39.2818 44.3082C40.4888 44.4199 41.6507 44.2487 42.5503 44.0629C43.9597 43.7654 43.8623 42.4635 43.3524 42.2257C39.2222 40.3066 40.1288 41.0876 39.3044 40.4553C41.1309 38.2998 43.7638 36.0709 45.2314 30.0332C45.5834 28.5854 45.8038 26.9679 45.8038 25.4515C45.8038 25.1477 45.8711 24.9979 46.2461 24.9606C47.2805 24.8414 48.285 24.5591 49.2071 24.053C51.8833 22.595 52.9629 20.1998 53.2177 17.3285C53.2551 16.8897 53.2103 16.4355 52.7454 16.205ZM29.4243 42.0466C25.421 38.9078 23.4796 37.8735 22.6775 37.9182C21.928 37.9629 22.0628 38.8184 22.2277 39.3762C22.4 39.9268 22.6252 40.306 22.9399 40.7895C23.1572 41.1095 23.3073 41.5853 22.7226 41.9427C21.4333 42.7384 19.1918 41.6749 19.0867 41.6226C16.478 40.0903 14.2965 38.067 12.7596 35.3C11.2754 32.6366 10.4132 29.7805 10.271 26.7305C10.2334 25.9942 10.451 25.7335 11.1854 25.5999C12.1524 25.4212 13.1494 25.3839 14.1165 25.5252C18.2019 26.1205 21.6801 27.9429 24.5963 30.829C26.2606 32.4728 27.52 34.4369 28.8171 36.3559C30.1964 38.3941 31.6807 40.3357 33.5697 41.9275C34.237 42.4854 34.7691 42.9095 35.279 43.222C33.7421 43.393 31.1782 43.4302 29.4243 42.0466ZM31.3605 29.5926C31.4239 29.3362 31.6553 29.1482 31.9355 29.1482C32.0047 29.1484 32.0732 29.161 32.1378 29.1853C32.2204 29.2152 32.2953 29.2599 32.3553 29.3266C32.4602 29.4309 32.5202 29.5796 32.5202 29.7357C32.5202 30.0631 32.2579 30.3233 31.9281 30.3233C31.7889 30.3246 31.6539 30.2757 31.5479 30.1857C31.4419 30.0957 31.372 29.9705 31.3511 29.8333C31.3381 29.7532 31.3413 29.6714 31.3605 29.5926ZM37.1096 32.8622C36.7922 32.9832 36.4763 33.0782 36.171 33.0906C35.6012 33.1203 34.9791 32.8897 34.6419 32.607C34.1173 32.1682 33.7424 31.9229 33.585 31.1564C33.5175 30.829 33.5549 30.3233 33.6149 30.0332C33.7499 29.4083 33.5998 29.0066 33.1578 28.6421C32.798 28.3446 32.3405 28.2629 31.8384 28.2629C31.6509 28.2629 31.4786 28.1811 31.3511 28.1142C31.1412 28.0102 30.9688 27.7498 31.1337 27.4298C31.1863 27.3258 31.4412 27.0727 31.5013 27.0283C32.1833 26.6414 32.9706 26.7678 33.6975 27.0579C34.3722 27.3332 34.8821 27.8389 35.6167 28.553C36.3662 29.4157 36.5012 29.6539 36.9286 30.3011C37.2661 30.8068 37.5733 31.3277 37.7833 31.9226C37.8901 32.2337 37.7919 32.4984 37.4982 32.6851C37.3787 32.761 37.2414 32.8119 37.1096 32.8622Z" fill="#030303" style="fill:#030303;fill:color(display-p3 0.0118 0.0118 0.0118);fill-opacity:1;"/>
<path d="M123.78 23.0527H124.459C124.534 22.9724 124.608 22.892 124.688 22.8174C125.615 21.9429 127.042 21.6318 128.457 21.6318C130.649 21.6318 132.853 22.1901 134.291 23.7549C135.729 25.3197 136.241 27.7189 136.241 30.1006C136.241 32.4822 135.729 34.8756 134.291 36.4404C132.853 38.0052 130.649 38.5635 128.457 38.5635H126.34V35.1807H128.457C129.769 35.1807 131.098 34.8468 131.961 33.9033C132.824 32.9656 133.134 31.5272 133.134 30.1006C133.134 28.6682 132.824 27.2297 131.961 26.292C131.098 25.3485 129.769 25.0146 128.457 25.0146C127.14 25.0147 125.816 25.3485 124.953 26.292C124.09 27.2297 123.78 28.6682 123.78 30.1006V44H120.058V21.6318H123.78V23.0527ZM80.1836 16.7822V39.1553H76.4609V37.7344H75.7764C75.7074 37.8149 75.6332 37.896 75.5527 37.9707C74.6208 38.8394 73.1994 39.1553 71.7842 39.1553C69.5923 39.1553 67.3884 38.598 65.9502 37.0332C64.512 35.4684 64 33.0691 64 30.6875C64 28.3059 64.5121 25.9125 65.9502 24.3477C67.3884 22.7829 69.5923 22.2246 71.7842 22.2246H73.9014V25.6074H71.7842C70.4668 25.6074 69.1432 25.9412 68.2803 26.8789C67.4175 27.8166 67.1074 29.2609 67.1074 30.6875C67.1074 32.1199 67.4174 33.5584 68.2803 34.4961C69.1432 35.4338 70.4668 35.7734 71.7842 35.7734C73.1016 35.7734 74.4251 35.4338 75.2881 34.4961C76.151 33.5584 76.4609 32.1199 76.4609 30.6875V16.7822H80.1836ZM90.7744 21.6318C93.0526 21.6318 95.3489 22.2135 96.8389 23.8301C98.3343 25.4466 98.8691 27.9258 98.8691 30.3936V31.752H88.957V29.0361H95.5381C95.3827 28.0409 95.0373 27.1262 94.416 26.4531C93.5185 25.4811 92.1435 25.1357 90.7744 25.1357C89.4111 25.1358 88.036 25.481 87.1387 26.4531C86.2414 27.4253 85.919 28.9152 85.9189 30.3936C85.9189 31.8721 86.2412 33.3627 87.1387 34.335C88.036 35.3071 89.4111 35.6523 90.7744 35.6523C92.1434 35.6523 93.5185 35.3069 94.416 34.335C94.5426 34.1969 94.6582 34.0469 94.7617 33.8916H98.4434C98.1212 35.0651 97.6039 36.1239 96.8389 36.958C95.3431 38.5746 93.0526 39.1553 90.7744 39.1553C88.4964 39.1552 86.2066 38.5745 84.7109 36.958C83.221 35.3414 82.6865 32.8557 82.6865 30.3936C82.6866 27.9258 83.2212 25.4466 84.7109 23.8301C86.2066 22.2136 88.4964 21.6319 90.7744 21.6318ZM109.46 21.6318C111.738 21.6318 114.033 22.2135 115.523 23.8301C117.019 25.4466 117.555 27.9257 117.555 30.3936V31.752H107.643V29.0361H114.224C114.068 28.0409 113.723 27.1262 113.102 26.4531C112.204 25.4809 110.829 25.1357 109.466 25.1357C108.097 25.1357 106.722 25.4809 105.824 26.4531C104.927 27.4253 104.605 28.9152 104.604 30.3936C104.604 31.8721 104.927 33.3627 105.824 34.335C106.722 35.3071 108.097 35.6523 109.466 35.6523C110.829 35.6523 112.204 35.307 113.102 34.335C113.228 34.1969 113.344 34.0469 113.447 33.8916H117.129C116.807 35.0652 116.294 36.1238 115.523 36.958C114.028 38.5745 111.738 39.1553 109.46 39.1553C107.188 39.1552 104.892 38.5745 103.402 36.958C101.907 35.3414 101.371 32.8558 101.371 30.3936C101.371 27.9257 101.907 25.4466 103.402 23.8301C104.892 22.2135 107.188 21.6319 109.46 21.6318ZM165.523 21.6318C167.802 21.6319 170.091 22.2136 171.587 23.8301C173.082 25.4466 173.617 27.9258 173.617 30.3936V31.752H163.699V29.0361H170.286C170.131 28.041 169.786 27.1262 169.165 26.4531C168.268 25.4809 166.893 25.1358 165.523 25.1357C164.16 25.1357 162.779 25.481 161.888 26.4531C160.99 27.4253 160.668 28.9152 160.668 30.3936C160.668 31.8721 160.99 33.3627 161.888 34.335C162.779 35.3069 164.16 35.6523 165.523 35.6523C166.893 35.6523 168.268 35.3071 169.165 34.335C169.292 34.1969 169.406 34.0469 169.51 33.8916H173.187C172.87 35.0652 172.352 36.1238 171.587 36.958C170.091 38.5745 167.802 39.1552 165.523 39.1553C163.245 39.1553 160.956 38.5744 159.46 36.958C157.97 35.3414 157.429 32.8558 157.429 30.3936C157.429 27.9257 157.97 25.4466 159.46 23.8301C160.956 22.2135 163.245 21.6318 165.523 21.6318ZM184.208 21.6318C186.486 21.6318 188.777 22.2135 190.272 23.8301C191.768 25.4466 192.303 27.9258 192.303 30.3936V31.752H182.391V29.0361H188.972C188.816 28.0409 188.471 27.1262 187.85 26.4531C186.952 25.481 185.577 25.1357 184.208 25.1357C182.845 25.1358 181.464 25.481 180.572 26.4531C179.675 27.4253 179.353 28.9152 179.353 30.3936C179.353 31.8721 179.675 33.3627 180.572 34.335C181.464 35.3071 182.845 35.6523 184.208 35.6523C185.577 35.6523 186.952 35.3069 187.85 34.335C187.976 34.1969 188.092 34.0469 188.195 33.8916H191.877C191.555 35.0651 191.037 36.1239 190.272 36.958C188.777 38.5746 186.486 39.1553 184.208 39.1553C181.93 39.1552 179.64 38.5745 178.145 36.958C176.655 35.3414 176.114 32.8557 176.114 30.3936C176.114 27.9258 176.655 25.4466 178.145 23.8301C179.64 22.2136 181.93 21.6319 184.208 21.6318ZM198.522 39.1553H194.801V16H198.522V39.1553ZM204.879 29.8701L210.988 39.1553H206.374L200.265 29.8701L206.374 22.4092H210.988L204.879 29.8701ZM146.837 21.6318C148.896 21.6318 150.968 21.9776 152.32 22.9326C153.672 23.8875 154.161 25.3485 154.161 26.8037H150.37C150.37 26.2401 150.139 25.6708 149.501 25.3027C148.868 24.9345 147.89 24.7959 146.918 24.7959C145.946 24.7959 144.968 24.9288 144.329 25.3027C143.691 25.6708 143.466 26.2401 143.466 26.8037C143.466 27.3675 143.691 27.9375 144.329 28.3057C144.968 28.6796 145.946 28.8115 146.918 28.8115H146.837C149.109 28.8115 151.405 29.1515 152.896 30.1064C154.391 31.0614 154.926 32.5281 154.926 33.9834C154.926 35.4331 154.391 36.9005 152.896 37.8555C151.405 38.8105 149.109 39.1504 146.837 39.1504C144.559 39.1503 142.269 38.8104 140.773 37.8555C139.278 36.9005 138.743 35.4331 138.743 33.9834H143.109C143.109 34.5472 143.363 35.1114 144.064 35.4854C144.772 35.8535 145.854 35.9854 146.924 35.9854C148 35.9853 149.081 35.8535 149.783 35.4854C150.491 35.1172 150.743 34.5471 150.743 33.9834C150.743 33.4198 150.49 32.8504 149.783 32.4766C149.081 32.1084 147.907 31.9756 146.837 31.9756C144.778 31.9755 142.706 31.6307 141.354 30.6758C140.003 29.7265 139.52 28.2591 139.52 26.8037C139.52 25.3485 140.003 23.8875 141.354 22.9326C142.706 21.9777 144.778 21.6319 146.837 21.6318Z" fill="#030303" style="fill:#030303;fill:color(display-p3 0.0118 0.0118 0.0118);fill-opacity:1;"/>
</svg>
