<svg width="123" height="60" viewBox="0 0 123 60" fill="none" xmlns="http://www.w3.org/2000/svg">
<path fill-rule="evenodd" clip-rule="evenodd" d="M43.0573 19.5782C43.3185 19.2433 43.5476 18.9373 43.7896 18.6408C43.9018 18.5014 43.8921 18.3957 43.7832 18.2498C42.7336 16.8702 42.6343 15.3383 43.2384 13.784C43.6919 12.6142 44.6949 12.0662 45.9208 11.9493C46.6851 11.8771 47.435 11.9557 48.1305 12.3274C49.0438 12.8161 49.5758 13.5613 49.7489 14.59C49.8867 15.4104 49.861 16.2116 49.6287 17.0064C49.2169 18.4133 48.2058 19.1424 46.8197 19.3266C45.6692 19.4805 44.5027 19.4997 43.3425 19.5782C43.2528 19.5846 43.1615 19.5782 43.0573 19.5782Z" fill="black" style="fill:black;fill-opacity:1;"/>
<path fill-rule="evenodd" clip-rule="evenodd" d="M40.2115 13.2776H33.2796L27.7914 25.7923H20.0326V13.3321H13.833V45.5753H20.0342V31.9919H30.9689C31.8926 31.9918 32.797 31.7279 33.5757 31.2311C34.3544 30.7343 34.9749 30.0253 35.3643 29.1877V45.5753H41.5655V31.9919C41.5656 30.4254 40.9728 28.9168 39.9063 27.7694C38.8398 26.6221 37.3785 25.9208 35.8161 25.8067V25.7907H32.4111C33.2315 25.5104 33.9855 25.0641 34.6259 24.4796C35.2663 23.8952 35.7795 23.1851 36.1334 22.3936L40.2115 13.2776Z" fill="black" style="fill:black;fill-opacity:1;"/>
<path fill-rule="evenodd" clip-rule="evenodd" d="M79.1978 19H83.9025L81.136 25.2095C80.8965 25.7482 80.5485 26.2317 80.1137 26.6299C79.679 27.0281 79.1669 27.3324 78.6093 27.5239H80.9193V27.5349C81.9817 27.6144 82.9746 28.0929 83.6986 28.8745C84.4226 29.656 84.824 30.6826 84.8221 31.7479V41H80.6146V29.8372C80.3513 30.4071 79.9304 30.8898 79.4016 31.2282C78.8727 31.5666 78.2581 31.7465 77.6303 31.7468H70.2075V41H66V19.0385H70.2075V27.5239H75.4732L79.1978 19ZM92.323 19H88.1265V41H92.323V19ZM118.138 19H122.334V41H118.138V19ZM95.6296 41V19H99.8701L105.247 27.6108L110.613 19H114.832V41H110.636V26.9013L105.25 35.5418L99.8272 26.854V41H95.6296Z" fill="black" style="fill:black;fill-opacity:1;"/>
</svg>
