<svg width="151" height="60" viewBox="0 0 151 60" fill="none" xmlns="http://www.w3.org/2000/svg">
<path d="M47.963 29.9996C47.963 19.8271 39.7164 11.5806 29.5439 11.5805C27.1518 11.5805 24.866 12.0362 22.769 12.866C23.9873 12.8195 25.2526 12.9249 26.5338 13.1774C30.8142 14.0211 35.3667 16.4838 39.2133 20.3303C43.0598 24.1768 45.5224 28.7293 46.3661 33.0098C46.6185 34.2905 46.7226 35.5553 46.6762 36.7731C47.5058 34.6764 47.963 32.3914 47.963 29.9996ZM26.229 14.7291C22.29 13.9527 18.7921 14.7031 16.5198 16.9754C14.2475 19.2477 13.4971 22.7457 14.2735 26.6846C15.0488 30.6174 17.3375 34.896 20.9925 38.551C24.6477 42.2063 28.9272 44.4949 32.8602 45.2701C36.799 46.0462 40.2959 45.2959 42.5681 43.0237C42.579 43.0129 42.5892 43.0014 42.6 42.9905C44.8469 40.7175 45.5869 37.2358 44.8144 33.3158C44.0393 29.3829 41.7506 25.1033 38.0954 21.4481C34.4404 17.7931 30.1618 15.5044 26.229 14.7291ZM11.1249 29.9996C11.1249 40.172 19.3715 48.4186 29.5439 48.4186C31.9358 48.4186 34.2208 47.9615 36.3175 47.1318C35.0996 47.1782 33.8349 47.0741 32.5541 46.8217C28.2737 45.9781 23.7212 43.5154 19.8746 39.6689C16.0281 35.8224 13.5654 31.2698 12.7218 26.9894C12.4693 25.7082 12.3638 24.4429 12.4104 23.2247C11.5806 25.3216 11.1249 27.6075 11.1249 29.9996ZM49.5439 29.9996C49.5439 41.0452 40.5895 49.9995 29.5439 49.9996C18.4983 49.9996 9.544 41.0452 9.54395 29.9996C9.54395 18.9539 18.4983 9.99957 29.5439 9.99957C40.5896 9.99963 49.5439 18.9539 49.5439 29.9996Z" fill="black" style="fill:black;fill-opacity:1;"/>
<path d="M34.1644 26.6168L31.5028 29.2783H37.4886V30.8592H31.5028L34.163 33.5194L33.0452 34.6373L29.5945 31.1866L26.1439 34.6373L25.026 33.5194L27.6862 30.8592H21.7018V29.2783H27.6862L25.0247 26.6168L26.1425 25.4989L29.5945 28.9509L33.0465 25.4989L34.1644 26.6168Z" fill="black" style="fill:black;fill-opacity:1;"/>
<path fill-rule="evenodd" clip-rule="evenodd" d="M16.4012 21.5454C13.067 23.7817 11.1249 26.7861 11.1249 29.9996C11.1249 33.213 13.067 36.2168 16.4012 38.4531C19.7303 40.686 24.3747 42.0927 29.544 42.0927C34.7132 42.0927 39.3574 40.686 42.6867 38.4531C46.0209 36.2168 47.963 33.213 47.963 29.9996C47.963 26.7861 46.0209 23.7817 42.6867 21.5454C39.3574 19.3125 34.7132 17.9058 29.544 17.9058C24.3747 17.9058 19.7303 19.3125 16.4012 21.5454ZM15.5205 20.2323C19.1438 17.8022 24.1041 16.3247 29.544 16.3247C34.9837 16.3247 39.9441 17.8022 43.5674 20.2323C47.1856 22.6592 49.5439 26.0973 49.5439 29.9996C49.5439 33.9017 47.1856 37.3394 43.5674 39.7662C39.9441 42.1964 34.9837 43.6739 29.544 43.6739C24.1041 43.6739 19.1438 42.1964 15.5205 39.7662C11.9023 37.3394 9.54395 33.9017 9.54395 29.9996C9.54395 26.0973 11.9023 22.6592 15.5205 20.2323Z" fill="black" style="fill:black;fill-opacity:1;"/>
<path d="M66 23.9776H68.7731V26.9468C69.5294 24.734 71.2941 23.6414 73.4229 23.6414C75.6079 23.6414 77.5406 24.8179 78.3529 27.2269C79.1373 24.8179 81.098 23.6414 83.3109 23.6414C86.2241 23.6414 88.6611 25.6583 88.6611 29.8879V39.6639H85.8599V30.1121C85.8599 27.7031 84.7675 26.0784 82.4426 26.0784C79.9216 26.0784 78.7451 27.9552 78.7451 30.5322V39.6639H75.944V30.1121C75.944 27.7031 74.8516 26.0784 72.4986 26.0784C69.9776 26.0784 68.8011 27.9552 68.8011 30.5322V39.6639H66V23.9776ZM91.2072 35.7704C91.2072 33.6415 92.5798 32.0448 95.0728 31.2605L100.339 29.5518C100.199 27.1428 99.0504 26.1905 96.7814 26.1905C95.465 26.1905 94.0363 26.4986 91.9915 27.2829V24.5939C93.7563 24.0336 95.493 23.6414 97.1175 23.6414C101.291 23.6414 103.14 26.2465 103.14 30V39.6639H100.395V37.367C99.5265 38.9917 97.8459 40 95.7731 40C92.9159 40 91.2072 38.1513 91.2072 35.7704ZM94.0363 35.5462C94.0363 36.8067 95.0448 37.7592 96.5854 37.7592C98.4901 37.7592 100.339 36.3305 100.339 34.2017V31.8488L96.1652 33.1933C94.7087 33.6415 94.0363 34.4818 94.0363 35.5462ZM109.992 40C108.871 40 107.555 39.804 105.986 39.1877V36.5267C107.499 37.1989 108.871 37.507 109.992 37.507C111.784 37.507 112.569 36.6107 112.569 35.4902C112.569 34.2017 111.532 33.6695 109.964 32.9412C107.975 32.0168 105.734 31.0365 105.734 28.1513C105.734 25.4901 107.667 23.6414 111.112 23.6414C112.205 23.6414 113.493 23.8096 114.978 24.2577V26.8627C113.549 26.4146 112.205 26.1345 111.112 26.1345C109.347 26.1345 108.563 27.0309 108.563 28.0952C108.563 29.2717 109.599 29.7479 111.14 30.4762C113.157 31.4006 115.398 32.465 115.398 35.4341C115.398 38.1513 113.465 40 109.992 40ZM124.135 39.8319C120.998 39.8319 119.653 38.3473 119.653 35.3502V26.4986H117.272V23.9776H119.653V20.8123L122.454 20V23.9776H126.544V26.4986H122.454V34.93C122.454 36.8348 123.043 37.2549 124.527 37.2549C125.228 37.2549 125.928 37.1709 126.544 37.0588V39.6079C125.732 39.748 124.947 39.8319 124.135 39.8319ZM129.08 23.9776H131.853V27.6471C132.693 25.2101 134.626 23.7815 137.427 23.7815V26.6667C137.12 26.6387 136.839 26.6107 136.531 26.6107C133.702 26.6107 131.881 28.3753 131.881 31.9328V39.6639H129.08V23.9776ZM138.586 35.7704C138.586 33.6415 139.959 32.0448 142.451 31.2605L147.717 29.5518C147.577 27.1428 146.429 26.1905 144.159 26.1905C142.843 26.1905 141.415 26.4986 139.37 27.2829V24.5939C141.135 24.0336 142.871 23.6414 144.496 23.6414C148.669 23.6414 150.518 26.2465 150.518 30V39.6639H147.774V37.367C146.905 38.9917 145.224 40 143.151 40C140.294 40 138.586 38.1513 138.586 35.7704ZM141.415 35.5462C141.415 36.8067 142.423 37.7592 143.964 37.7592C145.869 37.7592 147.717 36.3305 147.717 34.2017V31.8488L143.544 33.1933C142.087 33.6415 141.415 34.4818 141.415 35.5462Z" fill="black" style="fill:black;fill-opacity:1;"/>
</svg>
