<svg width="171" height="60" viewBox="0 0 171 60" fill="none" xmlns="http://www.w3.org/2000/svg">
<path d="M37.4865 12.5C39.5095 12.5 41.1493 14.1223 41.1493 16.1225V37.9992C41.1633 38.3344 41.3069 38.6511 41.5497 38.8825C41.7926 39.1139 42.1158 39.2421 42.4512 39.24C42.7864 39.2417 43.1092 39.1133 43.3517 38.8819C43.5941 38.6505 43.7375 38.3341 43.7515 37.9992V24.9232C43.754 24.4498 43.8498 23.9815 44.0333 23.5451C44.2168 23.1087 44.4844 22.7127 44.821 22.3798C45.1575 22.0468 45.5564 21.7834 45.9947 21.6045C46.4331 21.4257 46.9023 21.335 47.3758 21.3375C47.8493 21.335 48.3187 21.4258 48.7572 21.6047C49.1957 21.7836 49.5946 22.0472 49.9311 22.3804C50.2677 22.7135 50.5353 23.1097 50.7187 23.5463C50.9021 23.983 50.9977 24.4514 51 24.925V36.4068C50.9981 36.7077 50.877 36.9955 50.663 37.2072C50.4491 37.4188 50.1599 37.5369 49.859 37.5355C49.7098 37.5364 49.562 37.508 49.4238 37.4517C49.2857 37.3955 49.16 37.3126 49.0538 37.2078C48.9477 37.103 48.8633 36.9783 48.8054 36.8409C48.7475 36.7034 48.7172 36.5559 48.7162 36.4068V24.925C48.7153 24.7499 48.6799 24.5767 48.6121 24.4152C48.5442 24.2538 48.4452 24.1073 48.3207 23.9841C48.1963 23.8609 48.0487 23.7635 47.8866 23.6973C47.7245 23.6312 47.5509 23.5976 47.3758 23.5985C47.2006 23.5976 47.027 23.6312 46.8649 23.6973C46.7028 23.7635 46.5552 23.8609 46.4308 23.9841C46.3063 24.1073 46.2073 24.2538 46.1394 24.4152C46.0716 24.5767 46.0362 24.7499 46.0353 24.925V38.001C46.0327 38.4691 45.938 38.9322 45.7565 39.3637C45.5751 39.7952 45.3104 40.1868 44.9776 40.516C44.6448 40.8453 44.2504 41.1057 43.8169 41.2825C43.3834 41.4593 42.9194 41.549 42.4512 41.5465C41.9831 41.549 41.5191 41.4593 41.0856 41.2825C40.6521 41.1057 40.2577 40.8453 39.9249 40.516C39.5921 40.1868 39.3274 39.7952 39.146 39.3637C38.9645 38.9322 38.8698 38.4691 38.8672 38.001V16.126C38.8528 15.7705 38.7009 15.4346 38.4437 15.1888C38.1865 14.943 37.844 14.8066 37.4882 14.8083C37.1325 14.8061 36.7898 14.9421 36.5322 15.1876C36.2747 15.433 36.1224 15.7688 36.1075 16.1243L36.1058 43.9563C36.1002 44.9014 35.7195 45.8056 35.0474 46.4702C34.3754 47.1347 33.4669 47.5051 32.5217 47.5C32.0536 47.5025 31.5896 47.4128 31.1561 47.236C30.7226 47.0592 30.3282 46.7988 29.9954 46.4695C29.6626 46.1403 29.3979 45.7487 29.2165 45.3172C29.035 44.8857 28.9403 44.4226 28.9377 43.9545V40.57C28.9377 39.947 29.4488 39.4413 30.0788 39.4413C30.7088 39.4413 31.2197 39.947 31.2197 40.57V43.9545C31.2197 44.4148 31.4683 44.84 31.8708 45.071C32.2733 45.3002 32.7702 45.3002 33.1727 45.071C33.3702 44.959 33.5345 44.7967 33.6489 44.6006C33.7633 44.4045 33.8236 44.1815 33.8238 43.9545V16.1225C33.8238 14.1223 35.4635 12.5 37.4865 12.5ZM27.557 12.5C29.58 12.5 31.2197 14.1223 31.2197 16.1225V36.2878C31.2191 36.4368 31.189 36.5843 31.1313 36.7217C31.0735 36.8592 30.9893 36.9839 30.8833 37.0887C30.7773 37.1935 30.6517 37.2764 30.5137 37.3327C30.3756 37.3889 30.2278 37.4174 30.0788 37.4165C29.9297 37.4174 29.7819 37.3889 29.6438 37.3327C29.5058 37.2764 29.3802 37.1935 29.2742 37.0887C29.1682 36.9839 29.084 36.8592 29.0262 36.7217C28.9685 36.5843 28.9384 36.4368 28.9377 36.2878V16.1225C28.9354 15.7585 28.7887 15.4102 28.5298 15.1543C28.2709 14.8983 27.921 14.7556 27.557 14.7575C27.193 14.7556 26.8431 14.8983 26.5842 15.1543C26.3253 15.4102 26.1786 15.7585 26.1762 16.1225V40.6453C26.1707 41.6008 25.786 42.515 25.1068 43.187C24.4275 43.859 23.5093 44.2339 22.5537 44.2293C21.5979 44.2344 20.6792 43.8597 19.9996 43.1876C19.32 42.5155 18.9351 41.6011 18.9295 40.6453V24.925C18.9286 24.7499 18.8932 24.5767 18.8253 24.4152C18.7575 24.2538 18.6585 24.1073 18.534 23.9841C18.4095 23.8609 18.262 23.7635 18.0998 23.6973C17.9377 23.6312 17.7641 23.5976 17.589 23.5985C17.4139 23.5976 17.2403 23.6312 17.0782 23.6973C16.916 23.7635 16.7685 23.8609 16.644 23.9841C16.5195 24.1073 16.4205 24.2538 16.3527 24.4152C16.2848 24.5767 16.2494 24.7499 16.2485 24.925V31.575C16.246 32.0484 16.1502 32.5167 15.9667 32.9531C15.7832 33.3895 15.5156 33.7855 15.179 34.1185C14.8425 34.4515 14.4436 34.7149 14.0053 34.8937C13.5669 35.0725 13.0977 35.1633 12.6243 35.1608C12.1508 35.1633 11.6816 35.0725 11.2432 34.8937C10.8049 34.7149 10.406 34.4515 10.0695 34.1185C9.73293 33.7855 9.46527 33.3895 9.28177 32.9531C9.09827 32.5167 9.00252 32.0484 9 31.575V29.1635C9 28.5388 9.511 28.033 10.141 28.033C10.771 28.033 11.2837 28.5405 11.2837 29.1635V31.575C11.2837 32.3065 11.884 32.8997 12.6243 32.8997C13.3645 32.8997 13.9647 32.3065 13.9647 31.575V24.9232C13.9703 23.9677 14.355 23.0535 15.0342 22.3815C15.7135 21.7095 16.6317 21.3346 17.5873 21.3393C18.5431 21.3341 19.4618 21.7088 20.1414 22.3809C20.821 23.053 21.2059 23.9674 21.2115 24.9232V40.6453C21.2115 41.3785 21.8117 41.9717 22.5537 41.9717C23.294 41.9717 23.8942 41.3785 23.8942 40.6453V16.1225C23.8942 14.1223 25.534 12.5 27.557 12.5Z" fill="black" style="fill:black;fill-opacity:1;"/>
<path fill-rule="evenodd" clip-rule="evenodd" d="M66 39.5V20.5H70.0185L74.208 26.9866L78.2835 20.5H82.0721V39.5L78.2845 39.443V27.3875L75.1846 31.8658H73.2903L70.0185 27.3875V39.5H66ZM89.2475 20.5H85.5738V39.5H89.2475V20.5ZM92.6342 20.5H96.4808L103.598 32.2676V20.5H107.387V39.5H103.598L96.4808 27.8473V39.443H92.6342V20.5ZM114.562 20.5H110.659V39.5H114.562V20.5ZM117.891 20.5V39.5H121.909V27.3875L125.181 31.8658H127.076L130.175 27.3885V39.443L133.964 39.5V20.5H130.175L126.1 26.9866L121.909 20.5H117.891ZM136.375 39.5L142.402 20.5H147.224L153.308 39.5H149.06L148.215 36.63H141.433L140.566 39.5H136.375ZM142.426 33.4153H147.25L144.87 25.4941L142.426 33.4153ZM170.472 20.5H165.936L162.498 26.2779L158.991 20.5H154.628L160.291 29.9857L154.629 39.5H158.991L162.504 33.6926L165.936 39.443H170.472L164.748 29.9848L170.472 20.5Z" fill="black" style="fill:black;fill-opacity:1;"/>
</svg>
