<svg width="181" height="60" viewBox="0 0 181 60" fill="none" xmlns="http://www.w3.org/2000/svg">
<path d="M24.9907 35.8242C26.6947 35.3236 29.4003 34.5476 32.353 34.9629C34.1289 35.2126 35.9681 35.8995 37.6763 37.3721C39.3899 38.8494 41.0244 41.1634 42.3091 44.7461L42.3267 44.7393C41.568 46.3573 41.1563 48.1231 40.937 49.6836C40.636 51.8233 38.4982 53.4791 36.4243 52.873C33.7065 52.0786 30.4039 51.1557 28.7378 50.8486C26.6954 50.4724 24.1767 50.3418 22.6792 50.2969C22.5383 50.2926 22.3983 50.2798 22.2603 50.2578C25.6976 45.0789 26.0113 40.0759 24.9907 35.8242ZM17.1499 26.0459C18.5277 27.4829 20.643 30.0774 22.0386 33.3916C23.8791 37.763 24.4663 43.3555 20.437 49.2998L12.5464 41.1738C11.6703 40.2714 11.433 38.9259 11.9478 37.7783L16.9624 26.6025C17.0427 26.4234 17.1052 26.2366 17.1499 26.0459ZM41.2563 18.2959C41.7071 18.8688 41.9384 19.5806 41.9419 20.3096C41.9509 22.2276 42.1089 26.1657 43.1694 28.7021C44.2008 31.169 46.094 33.8332 47.0835 35.1445C47.4634 35.6477 47.5212 36.3283 47.2007 36.8711C46.5596 37.956 45.3453 39.958 43.6401 42.5312C42.3542 39.5043 40.7678 37.3349 39.0122 35.8213C36.9697 34.0606 34.7509 33.2327 32.6372 32.9355C32.3892 32.9006 32.1422 32.8733 31.897 32.8525C30.4239 29.4925 30.0974 26.6777 30.3364 24.2578C30.5941 21.6471 31.5155 19.4252 32.5063 17.3779C32.698 16.9821 32.8994 16.579 33.0991 16.1787C33.3994 15.577 33.6974 14.9807 33.9546 14.4248C34.3933 13.4765 34.7779 12.5166 34.9819 11.5527C35.0548 11.2078 35.1059 10.8597 35.1274 10.5088L41.2563 18.2959ZM28.8198 7.78711C29.6192 7.06804 30.6861 6.84966 31.647 7.09863C32.3829 7.83451 32.7695 8.50618 32.9517 9.12988C33.1336 9.75266 33.1328 10.4019 32.979 11.1289C32.8226 11.8683 32.5131 12.6643 32.0962 13.5654C31.8458 14.1067 31.5784 14.6429 31.2935 15.2129C31.0923 15.6156 30.8818 16.0355 30.6636 16.4863C29.641 18.599 28.5921 21.0819 28.2983 24.0566C28.044 26.6326 28.3605 29.5259 29.6704 32.832C27.4872 32.9656 25.5883 33.5046 24.4097 33.8555C24.2594 33.4263 24.0966 33.0068 23.9243 32.5977C21.9934 28.0118 18.8189 24.7063 17.5327 23.5693L18.3511 18.1465C18.4573 17.4429 18.8045 16.7982 19.3335 16.3223L28.8198 7.78711Z" fill="black" style="fill:black;fill-opacity:1;"/>
<path d="M76.3857 21C82.3937 21 86.7478 24.7948 86.748 30C86.748 35.2054 82.3938 39 76.3857 39C70.3534 38.9999 65.999 35.2053 65.999 30C65.9992 24.7949 70.3536 21.0001 76.3857 21ZM92.3311 27.373C93.2067 26.4488 94.8371 25.6465 96.9775 25.6465C101.356 25.6466 103.91 28.6631 103.91 32.3359C103.91 35.9843 101.356 38.9998 96.9775 39C94.837 39 93.2067 38.2221 92.3311 37.2734V38.7324H88.4395V21.2686H92.3311V27.373ZM111.598 25.6465C114.614 25.6466 117.021 26.6199 118.311 27.8604L116.292 30.1953C115.124 29.125 113.397 28.5166 111.402 28.5166C109.749 28.5167 108.873 28.9302 108.873 29.5869C108.873 30.2923 109.724 30.3654 112.497 30.6816C115.781 31.0708 118.651 31.6301 118.651 34.5488C118.651 37.5406 115.635 38.9999 111.622 39C108.655 39 105.808 38.1243 104.324 36.6162L106.173 34.0137C107.705 35.4244 109.724 36.1054 111.913 36.1055C113.664 36.1055 114.735 35.7654 114.735 34.9629C114.735 34.1115 113.519 34.111 110.648 33.7705C107.584 33.3813 105.029 32.773 105.029 30.0244C105.03 27.3976 107.536 25.6465 111.598 25.6465ZM141.163 38.7324H137.271V37.2734C136.396 38.222 134.766 39 132.626 39C128.248 39 125.694 35.9844 125.693 32.3359C125.693 28.663 128.248 25.6465 132.626 25.6465C134.766 25.6465 136.396 26.4489 137.271 27.373V21.2686H141.163V38.7324ZM156.728 25.6465C160.814 25.6465 163.222 27.2765 163.222 30.4873V35.1572C163.222 35.8383 163.514 36.1542 164.876 35.8623V38.7324C162.03 39.2675 160.473 38.5384 159.816 37.3223C158.649 38.3437 156.8 39 154.538 39C151.376 38.9999 149.114 37.5648 149.114 35.0352C149.114 32.53 151.328 31.2899 154.344 30.998L159.452 30.5352V30.4629C159.452 29.49 158.625 28.711 156.558 28.7109C154.806 28.7109 153.468 29.4412 153.079 30.4385L149.576 29.4893C150.379 27.1787 153.201 25.6465 156.728 25.6465ZM123.972 38.7324H120.079V25.9141H123.972V38.7324ZM147.441 38.7324H143.549V25.9141H147.441V38.7324ZM174.772 25.6465C178.105 25.6465 180.367 27.8842 180.367 31.4355V38.7324H176.476V32.5791C176.476 30.4143 175.429 29.1006 173.435 29.1006C171.318 29.1006 170.103 30.39 170.103 32.6035V38.7324H166.21V25.9141H170.103V27.4707C171.1 26.4249 172.705 25.6465 174.772 25.6465ZM154.903 33.6006C153.565 33.7222 152.885 34.0383 152.885 34.8896C152.885 35.7166 153.736 36.1543 155.244 36.1543C157.239 36.1542 159.452 35.303 159.452 33.8193V33.1387L154.903 33.6006ZM96.1748 28.7842C93.937 28.7842 92.21 30.2438 92.21 32.2627V32.4082C92.21 34.4271 93.937 35.8623 96.1748 35.8623C98.3151 35.8622 100.115 34.6221 100.115 32.3359C100.115 30.0496 98.3152 28.7843 96.1748 28.7842ZM133.429 28.7842C131.288 28.7842 129.488 30.0495 129.488 32.3359C129.488 34.6222 131.288 35.8623 133.429 35.8623C135.666 35.8622 137.394 34.4271 137.394 32.4082V32.2627C137.394 30.2438 135.666 28.7842 133.429 28.7842ZM76.3857 24.5273C72.7374 24.5274 70.135 26.6922 70.1348 30C70.1348 33.308 72.7372 35.4736 76.3857 35.4736C80.01 35.4736 82.6133 33.3081 82.6133 30C82.6131 26.6921 80.0099 24.5273 76.3857 24.5273ZM124.021 24.6006H120.056V21.2686H124.021V24.6006ZM147.489 24.6006H143.524V21.2686H147.489V24.6006Z" fill="black" style="fill:black;fill-opacity:1;"/>
</svg>
