<svg width="146" height="60" viewBox="0 0 146 60" fill="none" xmlns="http://www.w3.org/2000/svg">
<path fill-rule="evenodd" clip-rule="evenodd" d="M36.1712 25.7074C36.2608 25.7074 36.2832 25.7522 36.2384 25.8194L34.7154 28.4846L29.9674 36.8384C29.9674 36.8832 29.9226 36.8832 29.8778 36.8832C29.833 36.8832 29.8106 36.8832 29.7882 36.8384L23.4948 25.8642C23.45 25.797 23.4948 25.7746 23.5396 25.7746L36.1712 25.7074ZM24.637 11.1498L19.4187 20.2875C19.3739 20.3771 19.2843 20.4219 19.1723 20.4219H13.9539C13.8419 20.4219 13.8195 20.4667 13.8867 20.5563L24.4578 39.0557C24.5026 39.1229 24.4802 39.1677 24.3907 39.1677H19.3067C19.1499 39.1677 19.0155 39.2573 18.9483 39.414L16.5519 43.6246C16.4623 43.7589 16.5071 43.8485 16.6863 43.8485H27.1006C27.1902 43.8485 27.2574 43.8933 27.2798 43.9829L29.833 48.4622C29.9226 48.619 29.9898 48.619 30.0794 48.4622L39.1947 32.5159L40.6281 30.0075C40.6281 29.9627 40.6729 29.9628 40.7177 29.9628C40.7624 29.9628 40.7848 29.9627 40.8072 30.0075L43.4052 34.6212C43.45 34.6884 43.5172 34.7332 43.6068 34.7332L48.646 34.6884C48.7145 34.6884 48.7132 34.6284 48.7132 34.5764L43.4276 25.3043C43.3828 25.2371 43.3828 25.1699 43.4276 25.1027L46.0032 20.5787C46.048 20.5115 46.0032 20.4667 45.936 20.4667H24.8162C24.7042 20.4667 24.6818 20.4219 24.749 20.3323L27.3694 15.7634C27.4142 15.6962 27.4142 15.629 27.3694 15.5619L24.8834 11.1946C24.8834 11.1078 24.6779 11.0681 24.637 11.1498ZM30.9752 10.3883C31.6919 11.6425 32.4086 12.8967 33.1029 14.1733C33.1701 14.2853 33.2596 14.3301 33.394 14.3301H43.4948C43.8084 14.3301 44.0771 14.5316 44.3011 14.9348L46.9439 19.6156C47.2798 20.2203 47.3918 20.4891 46.9887 21.1386C46.2792 22.3209 45.5977 23.5169 44.9282 24.722C44.7266 25.0803 44.525 25.2371 44.861 25.6626L49.6986 34.1061C50.0122 34.6436 49.9002 35.0019 49.6314 35.5171C48.8252 36.9504 48.0189 38.3614 47.1902 39.7724C46.8991 40.2651 46.5407 40.4443 45.9584 40.4443C44.5474 40.4219 43.1365 40.4443 41.7255 40.4667C41.6583 40.4667 41.6135 40.5115 41.5687 40.5563C39.9338 43.4454 38.2988 46.3121 36.6415 49.1789C36.328 49.7164 35.9472 49.8508 35.3201 49.8508C33.506 49.8508 31.6695 49.8508 29.833 49.8508C29.4523 49.8508 29.1835 49.694 28.9819 49.358L26.5407 45.1251C26.5183 45.0579 26.4511 45.0355 26.3839 45.0355H17.067C16.5519 45.0803 16.0592 45.0355 15.6113 44.8788L12.6997 39.8396C12.5206 39.5036 12.5206 39.1901 12.6997 38.8541L14.8946 35.0019C14.9618 34.89 14.9618 34.7556 14.8946 34.6436C13.2753 31.8179 11.6619 28.9892 10.0569 26.1554C9.76579 25.5955 9.7434 25.2595 10.2361 24.4084C11.0872 22.9303 11.9159 21.4521 12.7669 19.9739C13.0133 19.5484 13.3268 19.3692 13.8195 19.3692C15.3873 19.3692 16.955 19.3692 18.5452 19.3692C18.6348 19.3692 18.702 19.3245 18.7468 19.2573L23.8531 10.3435C24.0323 10.0523 24.2787 9.89556 24.6146 9.89556C25.5777 9.89556 26.5407 9.89556 27.5038 9.89556L29.3627 9.85077C29.9898 9.85077 30.6841 9.91796 30.9976 10.4779L30.9752 10.3883Z" fill="black" style="fill:black;fill-opacity:1;"/>
<path fill-rule="evenodd" clip-rule="evenodd" d="M140.585 39.6623L141.598 31.9334C141.725 30.9199 141.745 29.58 140.998 28.8006C139.758 27.4526 137.223 28.093 136.158 29.3258C135.445 30.1325 134.976 31.3894 134.751 33.0777L133.907 39.681H130.849L132.631 26.2305H135.576L135.351 27.8438C136.725 26.5705 138.496 25.7219 140.398 25.7615C142.915 25.7615 144.787 27.2882 144.787 29.8886C144.787 33.146 144.05 36.4638 143.624 39.681H140.566L140.585 39.6623ZM125.296 35.5164L127.491 37.2423C126.703 38.2741 125.859 39.0245 124.94 39.4934C124.021 39.9624 122.97 40.2063 121.769 40.2063C119.781 40.2063 118.168 39.606 116.929 38.4054C115.691 37.186 115.091 35.6102 115.091 33.6405C115.091 31.6708 115.804 29.4384 117.211 27.9564C118.637 26.4744 120.437 25.724 122.614 25.724C124.79 25.724 125.896 26.2868 126.966 27.4311C128.601 29.1225 128.618 31.3163 128.504 33.4904H118.243C118.243 34.7098 118.543 35.6853 119.162 36.4169C119.781 37.1298 120.588 37.4862 121.619 37.4862C122.651 37.4862 123.008 37.3173 123.627 36.9797C124.283 36.6232 124.827 36.1355 125.277 35.5164H125.296ZM118.524 31.3143H125.465C125.446 30.4139 125.146 29.6822 124.621 29.1757C124.096 28.6505 123.383 28.3878 122.482 28.3878C121.582 28.3878 120.588 28.6505 119.893 29.1757C119.181 29.701 118.73 30.4139 118.543 31.3143H118.524ZM92.4859 26.193H95.5624L97.7385 33.059C97.9565 33.7128 98.1947 34.4103 98.2263 35.1037C98.4988 34.3315 98.8221 33.5961 99.2393 32.8901L103.76 25.18L105.955 33.1152C106.153 33.7469 106.249 34.4279 106.312 35.085C106.563 34.4254 106.84 33.7931 107.175 33.1715L111.245 26.1555H114.716L105.599 40.4502L103.329 32.9276C103.126 32.3194 103.024 31.6875 102.954 31.0517C102.657 31.6446 102.403 32.3109 102.016 32.8526L97.4384 40.4502L92.4671 26.1555L92.4859 26.193ZM86.3515 41.8759L84.0816 39.2496C80.1459 40.8056 75.1506 40.5539 72.0005 37.4674C67.7192 33.2726 68.5566 25.5227 72.6759 21.5406C76.7217 17.6368 84.21 17.0621 88.3588 21.1279C92.9456 25.623 91.688 33.9659 86.8205 37.7301L90.291 41.8571H86.4078L86.3515 41.8759ZM79.2605 33.4717H83.1437L84.7757 35.3851C86.8048 33.7318 87.9086 31.1537 87.9086 28.5567C87.9086 26.3806 87.2332 24.636 85.9013 23.3228C84.5694 21.9909 82.8248 21.3155 80.6299 21.3155C75.9682 21.3155 72.4133 25.4825 72.4133 29.9824C72.4133 32.121 73.0698 33.8656 74.3642 35.235C76.3284 37.2834 79.4542 37.6435 82.0744 36.8671L79.2417 33.4717H79.2605Z" fill="black" style="fill:black;fill-opacity:1;"/>
</svg>
