<svg width="123" height="60" viewBox="0 0 123 60" fill="none" xmlns="http://www.w3.org/2000/svg">
<path fill-rule="evenodd" clip-rule="evenodd" d="M30.175 13.3333L26.545 18.255H11.0883L14.7167 13.3333H30.1767H30.175ZM48.7567 41.7466L45.13 46.6666H29.7267L33.35 41.7466H48.7567ZM50 13.3333L25.44 46.6666H10L34.56 13.3333H50Z" fill="black" style="fill:black;fill-opacity:1;"/>
<path fill-rule="evenodd" clip-rule="evenodd" d="M117.744 42.6558V24.4536H122.793V42.6558H117.744ZM120.28 22.1075C119.563 22.1206 118.87 21.8526 118.348 21.3609C117.82 20.8558 117.555 20.2516 117.555 19.5484C117.555 18.8526 117.82 18.257 118.348 17.7593C118.866 17.261 119.561 16.9881 120.28 17.0004C121.031 17.0004 121.67 17.253 122.199 17.7593C122.737 18.257 123.006 18.8526 123.006 19.5484C123.006 20.2516 122.737 20.8558 122.2 21.3609C121.684 21.8533 120.993 22.1217 120.28 22.1075ZM103.577 43C102.416 43 101.382 42.7982 100.473 42.3958C99.595 42.0106 98.8463 41.381 98.3163 40.582C97.7938 39.7773 97.5338 38.7744 97.5338 37.5735C97.5338 36.5608 97.7195 35.7114 98.0909 35.0243C98.4624 34.3372 98.9675 33.7838 99.6076 33.3653C100.278 32.9335 101.015 32.6136 101.788 32.4182C102.61 32.204 103.472 32.0542 104.372 31.9675C105.227 31.8815 106.08 31.7788 106.931 31.6592C107.578 31.5565 108.049 31.4067 108.342 31.2086C108.633 31.0105 108.779 30.7195 108.779 30.332V30.2614C108.779 29.5099 108.543 28.9293 108.069 28.5195C107.603 28.1084 106.939 27.9029 106.078 27.9029C105.169 27.9029 104.446 28.1047 103.909 28.5071C103.395 28.8699 103.019 29.3962 102.843 30.0002L98.1739 29.6213C98.3881 28.5615 98.8697 27.5741 99.5729 26.7527C100.266 25.9393 101.164 25.3166 102.262 24.8808C103.368 24.4388 104.648 24.2171 106.101 24.2171C107.113 24.2171 108.081 24.336 109.005 24.5725C109.937 24.8102 110.763 25.1767 111.481 25.6744C112.209 26.1721 112.781 26.8134 113.2 27.5946C113.619 28.3684 113.828 29.297 113.828 30.3803V42.6558H109.04V40.1326H108.898C108.606 40.7021 108.215 41.2023 107.726 41.6369C107.205 42.0811 106.606 42.423 105.959 42.6447C105.272 42.8811 104.478 43 103.577 43ZM105.023 39.5161C105.766 39.5161 106.422 39.37 106.99 39.0778C107.56 38.7769 108.005 38.3745 108.33 37.8682C108.653 37.363 108.815 36.791 108.815 36.151V34.2196C108.657 34.3211 108.44 34.4164 108.164 34.5043C107.863 34.591 107.558 34.6658 107.251 34.7284C106.912 34.7917 106.572 34.8512 106.231 34.9067L105.308 35.0367C104.715 35.1234 104.197 35.262 103.755 35.4514C103.313 35.6409 102.969 35.8972 102.724 36.2215C102.48 36.5372 102.357 36.9322 102.357 37.4064C102.357 38.0935 102.605 38.6197 103.104 38.9824C103.609 39.3378 104.249 39.5148 105.023 39.5148V39.5161ZM91.3979 42.9641C91.0235 42.9692 90.6519 42.8984 90.3057 42.7558C89.9595 42.6132 89.6458 42.4019 89.3835 42.1346C89.1162 41.8724 88.9049 41.5587 88.7623 41.2124C88.6197 40.8662 88.5489 40.4946 88.554 40.1202C88.554 39.3464 88.8301 38.6828 89.3835 38.1294C89.9444 37.5772 90.6154 37.2999 91.3979 37.2999C92.1568 37.2999 92.8204 37.5772 93.3887 38.1294C93.9582 38.6828 94.243 39.3464 94.243 40.1202C94.243 40.6415 94.1068 41.1206 93.8394 41.5539C93.5794 41.9811 93.234 42.3252 92.8081 42.5852C92.3814 42.8379 91.8937 42.969 91.3979 42.9641ZM66.0248 42.6558V39.6101L78.1331 22.6176H66V18.387H84.581V21.4327L72.4578 38.4253H84.6046V42.6558H66.0248Z" fill="black" style="fill:black;fill-opacity:1;"/>
</svg>
