<svg width="133" height="60" viewBox="0 0 133 60" fill="none" xmlns="http://www.w3.org/2000/svg">
<path fill-rule="evenodd" clip-rule="evenodd" d="M101.575 23.9521C102.633 26.2032 103.656 26.647 105.055 25.4873L105.873 24.8047L105.021 22.6563C104.134 20.5415 104.133 20.5067 104.747 19.4834C106.18 17.1299 105.293 13.5487 102.939 12.1162C101.984 11.5364 101.2 11.4346 98.1299 11.4346H94.4805L94.1055 12.3555C93.9009 12.9361 93.798 15.6989 93.8662 19.3818C93.9685 25.93 94.0372 26.1006 95.8447 26.1006C97.1409 26.1006 97.5508 25.4864 97.5508 23.6445V22.0078H99.085C100.62 22.0078 100.62 22.008 101.575 23.9521ZM99.5625 19.04C98.5736 19.1764 98.1642 19.0745 97.4141 18.3926C96.3908 17.4376 96.2888 16.6871 97.0732 15.5957C97.4825 14.9817 97.926 14.8447 99.4268 14.8447C101.029 14.8447 101.37 14.9474 101.848 15.6973C102.496 16.6864 102.257 18.0849 101.37 18.5283C101.063 18.6989 100.245 18.9377 99.5625 19.04Z" fill="black" style="fill:black;fill-opacity:1;"/>
<path d="M124.701 27.124C125.315 27.3627 125.861 27.3626 126.475 27.0557C127.327 26.6464 127.395 26.4075 127.565 23.8838C127.736 21.1892 127.77 21.1208 130.056 17.71C131.624 15.3912 132.307 14.0952 132.137 13.6855C131.864 12.9693 130.158 12.0483 129.544 12.2871C129.305 12.3904 128.316 13.6864 127.396 15.1865C126.475 16.6864 125.623 17.9139 125.52 17.915C125.417 17.915 124.735 16.8576 123.984 15.5957C123.234 14.3337 122.347 13.0374 122.04 12.7305C121.699 12.3894 121.29 12.1162 121.119 12.1162C120.539 12.1166 119.039 13.5491 119.039 14.0947C119.039 14.4022 120.131 16.2779 121.427 18.2559L123.813 21.8369V24.3271C123.813 26.6806 123.848 26.817 124.701 27.124Z" fill="black" style="fill:black;fill-opacity:1;"/>
<path d="M53.2773 20.2686C53.755 25.0777 58.3259 28.3175 62.8281 26.9873C65.8976 26.1005 66.6483 24.9408 65.2158 23.2695C64.6019 22.5533 63.8167 22.519 62.5547 23.2012C61.2928 23.8492 60.577 23.8491 59.1445 23.167C56.3476 21.8368 56.2791 17.7783 59.0078 16.3799C60.3039 15.7318 61.4298 15.7319 62.8965 16.4141C64.2265 17.0619 64.8747 16.9252 65.6592 15.7656C66.3752 14.6743 66.0336 13.924 64.4307 13.1055C59.178 10.4453 52.7316 14.5725 53.2773 20.2686Z" fill="black" style="fill:black;fill-opacity:1;"/>
<path d="M77.9375 27.124C79.7452 27.124 79.8135 26.8853 79.8135 19.791C79.8135 12.6964 79.7453 12.457 77.9375 12.457C76.369 12.4571 76.0625 12.9692 76.0625 15.7656V18.2559H70.9453V15.7656C70.9453 14.2991 70.7749 13.105 70.5361 12.8662C69.9901 12.321 68.1497 12.321 67.6035 12.8662C67.0237 13.4461 67.0237 26.135 67.6035 26.7148C67.8424 26.9534 68.4898 27.1239 69.0693 27.124C70.6383 27.124 70.9453 26.6123 70.9453 23.8154V21.3252H76.0625V23.8154C76.0625 26.612 76.3689 27.1239 77.9375 27.124Z" fill="black" style="fill:black;fill-opacity:1;"/>
<path d="M81.6221 26.5439C81.9973 27.0897 82.6449 27.1239 87.3174 27.0557L92.6045 26.9531L92.707 25.5889C92.8775 23.6449 92.2971 23.3721 88.2725 23.3721C84.9304 23.3721 84.9307 23.3721 84.9307 22.5195C84.9307 21.701 84.9984 21.667 87.4199 21.667C90.2166 21.667 90.7284 21.3597 90.7285 19.791C90.7285 18.222 90.2168 17.915 87.4199 17.915C84.9989 17.915 84.9307 17.8806 84.9307 17.0625C84.9307 16.2098 84.9643 16.209 87.9658 16.209C89.6371 16.209 91.4453 16.0728 91.9229 15.8682C92.707 15.5613 92.8093 15.3905 92.707 14.0947L92.6045 12.6279L87.25 12.5254C82.2361 12.4572 81.8606 12.4915 81.5195 13.1055C81.0079 14.0946 81.0763 25.8277 81.6221 26.5439Z" fill="black" style="fill:black;fill-opacity:1;"/>
<path fill-rule="evenodd" clip-rule="evenodd" d="M107.544 27.7383C108.908 28.3863 109.42 28.0791 110.341 25.9307C111.194 24.0548 111.194 24.0547 112.729 24.0547H114.264V25.5205C114.264 26.3389 114.434 27.1574 114.673 27.3965C115.287 28.0103 117.571 27.9085 117.811 27.2607C118.22 26.2035 118.05 13.9943 117.606 13.5488C117.027 12.969 110.99 13.0374 109.659 13.6172C106.76 14.9133 105.6 18.2901 107.135 21.1211L107.817 22.417L107.101 24.2246C106.214 26.4416 106.282 27.1584 107.544 27.7383ZM113.923 20.8135C113.923 21.3933 113.376 21.496 113.069 20.9844C112.967 20.7799 112.49 20.6436 112.013 20.6436C110.512 20.6436 109.829 20.0636 109.829 18.7676C109.829 18.1536 110.068 17.3686 110.375 17.0957C111.091 16.3455 113.854 16.3797 114.673 17.1299C115.628 17.9825 115.423 20.3021 114.4 20.3027C114.128 20.3027 113.923 20.5408 113.923 20.8135Z" fill="black" style="fill:black;fill-opacity:1;"/>
<path fill-rule="evenodd" clip-rule="evenodd" d="M121.836 46.5654C124.189 46.5654 125.656 46.0205 127.021 44.6562C130.875 40.7338 129.714 34.15 124.769 32.1035C120.573 30.3303 116.037 32.7861 114.945 37.3564C114.195 40.5626 115.491 43.8035 118.288 45.5771C119.55 46.3616 120.233 46.5654 121.836 46.5654ZM125.485 38.0732C126.338 41.893 122.279 44.4849 119.585 41.8252C118.664 40.9044 118.527 40.4947 118.527 39.0283C118.527 37.4934 118.663 37.1856 119.652 36.2988C121.767 34.3888 124.871 35.3105 125.485 38.0732Z" fill="black" style="fill:black;fill-opacity:1;"/>
<path d="M71.6279 45.8838C72.3783 46.6341 73.0607 46.7362 74.0498 46.2246C74.6635 45.8835 74.6973 45.4397 74.6973 40.2559V34.6279H77.0166C79.4724 34.6279 80.1553 34.2866 80.1553 33.0928C80.1552 32.6837 79.9846 32.2066 79.7461 31.9678C79.4732 31.6949 77.4603 31.5586 72.958 31.5586C66.0005 31.5586 65.6929 31.6605 65.8975 33.502C65.9998 34.457 66.0344 34.4572 68.4902 34.5596L70.9453 34.6621V39.915C70.9453 44.7582 71.014 45.2698 71.6279 45.8838Z" fill="black" style="fill:black;fill-opacity:1;"/>
<path fill-rule="evenodd" clip-rule="evenodd" d="M95.5039 38.9941C95.5039 46.8387 95.4016 46.7027 100.108 46.498C102.905 46.3957 103.485 46.2588 104.918 45.3379C107.271 43.9053 108.533 41.7562 108.533 39.1299C108.533 36.0262 107.169 33.8436 104.372 32.377C103.553 31.9677 102.155 31.7283 99.9375 31.626C95.3675 31.4213 95.5039 31.1836 95.5039 38.9941ZM99.2559 42.8135V35.3105H100.483C102.257 35.3105 103.895 36.1971 104.509 37.5273C105.191 38.9255 105.191 39.1986 104.509 40.5967C103.895 41.9269 102.257 42.8135 100.483 42.8135H99.2559Z" fill="black" style="fill:black;fill-opacity:1;"/>
<path d="M87.0107 46.498C89.4665 46.6686 90.6946 46.2249 92.2295 44.5195C93.7985 42.78 94.1396 41.3813 94.1396 36.4355C94.1396 32.6496 94.0711 32.2405 93.4912 31.8994C92.5364 31.422 91.5475 31.4899 90.9336 32.1035C90.4902 32.5128 90.3877 33.4682 90.3877 36.8105C90.3877 40.5282 90.319 41.1081 89.7051 41.8926C88.75 43.0864 87.9316 43.2917 86.499 42.6777C85.0666 42.0638 84.9987 41.8247 84.8623 36.6406C84.7941 33.9119 84.6233 32.5129 84.2822 32.1377C83.7705 31.4898 82.6787 31.3879 81.792 31.9336C81.2465 32.2406 81.1787 32.855 81.1787 36.9131C81.1787 40.9379 81.2806 41.7566 81.8945 43.0527C82.9519 45.2357 84.555 46.3275 87.0107 46.498Z" fill="black" style="fill:black;fill-opacity:1;"/>
<path d="M110.478 46.2246C111.433 46.7021 112.422 46.6345 113.036 46.0205C113.479 45.5771 113.581 44.451 113.581 39.0625C113.581 33.6736 113.479 32.547 113.036 32.1035C112.422 31.4896 111.296 31.422 110.443 31.9336C109.898 32.2406 109.829 32.9576 109.829 39.0625C109.829 45.4401 109.864 45.8835 110.478 46.2246Z" fill="black" style="fill:black;fill-opacity:1;"/>
<path d="M59.4853 46.5654C62.5892 46.5654 64.7721 44.9283 65.0449 42.4043C65.3518 39.5395 64.2945 38.3456 60.6113 37.3906C58.7354 36.879 58.4961 36.7426 58.4961 35.9922C58.4961 35.3101 58.7008 35.1053 59.417 35.0371C59.9286 34.9689 60.7471 35.1736 61.2246 35.5146C62.3502 36.265 63.6462 35.7531 63.9873 34.4229C64.1577 33.7409 64.0218 33.3315 63.3057 32.6494C62.5553 31.8991 62.0435 31.7283 60.1338 31.626C58.1214 31.5237 57.6434 31.6264 56.6201 32.3086C54.6078 33.6729 53.9935 35.9585 55.085 38.0391C55.6989 39.1987 56.4156 39.6424 59.0078 40.4609C61.1224 41.109 61.77 41.7908 61.0879 42.6094C60.4057 43.3935 59.0756 43.2576 57.916 42.3027C56.6199 41.2113 55.4262 41.2113 54.71 42.3027C54.1986 43.0528 54.1982 43.2917 54.6074 44.042C55.3237 45.3722 57.6094 46.5654 59.4853 46.5654Z" fill="black" style="fill:black;fill-opacity:1;"/>
<path d="M24.9676 8.92089C24.9676 8.92089 25.2087 8.49999 25.8543 7.99999C26.5 7.49999 27.5 7.5 27.5 7.5L28.5828 8.78417C29.879 10.1485 29.5718 11.1042 26.6385 14.7197C25.1719 16.5615 23.4321 18.6421 22.8182 19.3584L21.659 20.6201L18.1112 17.2773C15.042 14.4128 14.5644 13.7986 14.5643 12.8437C14.5643 11.3771 15.5194 10.3877 16.952 10.3877C17.8046 10.3877 18.4526 10.7289 19.6463 11.8203L21.2157 13.2871L22.6483 11.581C23.3986 10.6261 24.4561 9.46655 24.9676 8.92089Z" fill="black" style="fill:black;fill-opacity:1;"/>
<path d="M30.868 34.3662C35.0631 40.2669 28.716 50.2217 25 51.5225C21.284 52.8232 18.3846 51.5225 18.3846 51.5225C14.4622 50.124 11.665 46.8838 10.7782 42.6885C10.6418 42.1771 10.3351 41.7681 10.0623 41.7676C8.80033 41.7676 5.66175 40.2325 4.16097 38.8682C0.647862 35.6961 -0.511712 30.2383 1.43246 26.043C2.62626 23.4509 4.43448 21.5074 6.75375 20.3818C8.4249 19.5633 9.10686 19.4268 11.5965 19.4267C15.0074 19.4267 16.815 20.1089 19.0321 22.2236C20.3281 23.4515 20.4647 23.724 20.4647 25.2588C20.4647 29.0448 16.9514 30.6485 13.8817 28.3291C11.4941 26.4872 8.52719 27.7491 8.52719 30.5801C8.52735 33.3768 11.4601 34.536 13.8817 32.6943C16.2693 30.8866 19.2375 31.5347 20.3289 34.1269C20.9429 35.5936 20.7377 36.8557 19.578 38.3906C17.7703 40.8463 18.9982 43.8132 21.7948 43.8135C22.8862 43.8135 23.2963 43.6095 24.0125 42.7568C25.1381 41.4607 25.1382 40.1638 24.0467 38.6631C22.2049 36.1392 21.7956 35.3888 21.284 33.6152C20.0903 29.5565 21.3858 25.0545 24.5916 22.1894C26.9791 20.0407 29.5035 19.1538 32.5731 19.3242C36.8025 19.5971 40.1112 21.9164 41.9871 25.873C43.7267 29.5226 43.2838 33.6501 40.8621 37.2314C39.2591 39.5848 37.2122 40.3004 35.1317 39.209C32.9831 38.1175 32.4712 35.2531 34.0057 33.0361C35.2677 31.1943 35.2677 29.3522 34.0057 28.2607C32.3004 26.7942 29.9816 27.3054 29.1287 29.3516C28.5489 30.7159 28.8556 31.5693 30.868 34.3662Z" fill="black" style="fill:black;fill-opacity:1;"/>
</svg>
