<svg width="139" height="60" viewBox="0 0 139 60" fill="none" xmlns="http://www.w3.org/2000/svg">
<path d="M15.1445 17.4082C20.6313 11.9302 28.7124 10.5491 35.4619 13.3242C36.9552 13.8784 38.2571 14.6671 39.2725 15.4004L33.6357 18.001C28.388 15.8014 22.3762 17.2976 18.707 20.9639C13.8225 25.8402 12.7745 34.241 18.29 39.7969L18.5537 40.0635L2.67773 54.2334C3.68461 52.848 4.9349 51.5391 6.18066 50.2305C9.69622 46.5386 13.1864 42.881 11.0576 37.71C8.20753 30.7908 9.86677 22.6817 15.1445 17.4082ZM52.3066 6.84473C47.0802 14.0365 44.5292 17.5535 46.5771 26.3525L46.5635 26.3398C47.9758 32.3295 46.4656 38.9719 41.5889 43.8447C35.4407 49.9919 25.6021 51.3604 17.5 45.8271L23.1494 43.2139C28.3203 45.2428 33.9781 44.3516 38.0439 40.2891C42.1099 36.2263 43.0231 30.3086 40.9795 25.3848C40.5912 24.4512 39.4263 24.2168 38.6113 24.8174L21.9844 37.083L45.7998 13.1797V13.2012L52.6777 6.32812C52.554 6.50291 52.4302 6.6742 52.3066 6.84473Z" fill="black" style="fill:black;fill-opacity:1;"/>
<path d="M73.2324 17.9995C78.6546 17.9995 82.6245 20.7733 83.5605 25.9331H79.3975C78.7842 22.9985 76.3308 21.354 73.2324 21.354C68.2298 21.354 66.0353 25.6752 66.0352 30.0933C66.0352 34.5114 68.2297 38.8013 73.2324 38.8013C78.0092 38.8012 80.1073 35.3502 80.2686 32.48H73.0713V29.1411H83.9482L83.9297 30.8862C83.9297 37.3739 81.281 42.0005 73.0967 42.0005C66.1452 42.0005 62 36.9625 62 30.0933C62.0001 23.1597 66.2933 17.9995 73.2324 17.9995ZM105.553 24.4819C111.007 24.4821 113.912 28.2881 113.912 33.2222C113.912 38.1239 111.007 41.9612 105.553 41.9614C100.131 41.9614 97.1935 38.124 97.1934 33.2222C97.1934 28.288 100.13 24.4819 105.553 24.4819ZM96.6279 27.9976H90.6895V41.5747H87.042V27.5454L90.1084 24.9009H96.6279V27.9976ZM120.261 33.7446L127.975 24.9009H132.396L125.457 32.48L132.461 41.5747H128.104L122.431 33.7603L120.261 33.7446V41.5747H116.613V18.5483H120.261V33.7446ZM105.553 27.481C103.067 27.481 101.002 29.4167 101.002 33.2222C101.002 37.0274 103.068 38.9302 105.553 38.9302C108.07 38.93 110.103 37.0272 110.104 33.2222C110.104 29.4169 108.07 27.4812 105.553 27.481Z" fill="black" style="fill:black;fill-opacity:1;"/>
</svg>
