<svg width="176" height="60" viewBox="0 0 176 60" fill="none" xmlns="http://www.w3.org/2000/svg">
<g clip-path="url(#clip0_2568_69395)">
<path d="M40.0718 35.6565C40.9697 35.6566 41.6975 36.384 41.6975 37.2813C41.6974 38.1786 40.9696 38.906 40.0718 38.9061C39.1738 38.9061 38.4462 38.1786 38.4461 37.2813C38.4461 36.3839 39.1737 35.6565 40.0718 35.6565Z" fill="#0D1117" style="fill:#0D1117;fill:color(display-p3 0.0510 0.0667 0.0902);fill-opacity:1;"/>
<path d="M19.837 21.2132C20.7349 21.2133 21.4627 21.9406 21.4627 22.838C21.4625 23.7352 20.7348 24.4627 19.837 24.4628C18.939 24.4628 18.2115 23.7353 18.2113 22.838C18.2113 21.9406 18.9389 21.2132 19.837 21.2132Z" fill="#0D1117" style="fill:#0D1117;fill:color(display-p3 0.0510 0.0667 0.0902);fill-opacity:1;"/>
<path fill-rule="evenodd" clip-rule="evenodd" d="M29.9539 6.5C42.9089 6.5 53.4117 17.0213 53.4117 30C53.4117 42.9787 42.9089 53.5 29.9539 53.5C16.999 53.4999 6.49707 42.9786 6.49707 30C6.49707 17.0214 16.999 6.50013 29.9539 6.5ZM19.837 18.6851C17.542 18.6851 15.6813 20.5447 15.6813 22.838C15.6815 25.1313 17.5421 26.99 19.837 26.99C21.6908 26.9899 23.2612 25.7764 23.7962 24.1011H25.6184C27.3145 24.1013 28.6899 25.4758 28.6899 27.1708V32.9476C28.6899 36.0387 31.1972 38.5445 34.2904 38.5445H36.1126C36.6476 40.2198 38.2178 41.4333 40.0718 41.4333C42.3665 41.4332 44.2273 39.5745 44.2274 37.2813C44.2274 34.9881 42.3666 33.1285 40.0718 33.1284C38.2179 33.1284 36.6477 34.3419 36.1126 36.0173H34.2904C32.5942 36.0173 31.2189 34.6427 31.2189 32.9476V27.1708C31.2189 24.0799 28.7114 21.5741 25.6184 21.574H23.7962C23.2612 19.8987 21.6908 18.6852 19.837 18.6851Z" fill="#0D1117" style="fill:#0D1117;fill:color(display-p3 0.0510 0.0667 0.0902);fill-opacity:1;"/>
<path d="M124.637 28.4082L123.333 40H120.019L122.627 20L130.422 32.9252L138.245 20L140.852 40H137.538L136.208 28.4082L130.422 38.2313L124.637 28.4082Z" fill="#0D1117" style="fill:#0D1117;fill:color(display-p3 0.0510 0.0667 0.0902);fill-opacity:1;"/>
<path fill-rule="evenodd" clip-rule="evenodd" d="M76.7333 26.0136C76.2444 27.2109 76 28.5261 76 29.9592C76 31.3741 76.2444 32.6893 76.7333 33.9048C77.2222 35.1202 77.9013 36.1723 78.7704 37.0612C79.6577 37.9501 80.7079 38.6485 81.9212 39.1565C83.1343 39.6463 84.4472 39.8912 85.8595 39.8912C87.29 39.8912 88.6028 39.6463 89.7979 39.1565C91.0111 38.6485 92.0613 37.9501 92.9486 37.0612C93.8359 36.1723 94.524 35.1202 95.0129 33.9048C95.5018 32.6893 95.7462 31.3741 95.7462 29.9592C95.7462 28.5261 95.5018 27.2109 95.0129 26.0136C94.524 24.8163 93.8268 23.7823 92.9214 22.9116C92.0342 22.0227 90.993 21.3333 89.7979 20.8435C88.6028 20.3537 87.29 20.1088 85.8595 20.1088C84.4652 20.1088 83.1615 20.3537 81.9483 20.8435C80.7532 21.3333 79.703 22.0227 78.7976 22.9116C77.9104 23.7823 77.2222 24.8163 76.7333 26.0136ZM80.21 33.4694C79.6668 32.4354 79.3952 31.2653 79.3952 29.9592C79.3952 28.6531 79.6668 27.4921 80.21 26.4762C80.7713 25.4422 81.5409 24.6349 82.5187 24.0544C83.4965 23.4739 84.6102 23.1837 85.8595 23.1837C87.1451 23.1837 88.2678 23.4739 89.2275 24.0544C90.2053 24.6349 90.9658 25.4422 91.509 26.4762C92.0523 27.4921 92.3239 28.6531 92.3239 29.9592C92.3239 31.2653 92.0433 32.4354 91.4819 33.4694C90.9387 34.4853 90.1781 35.2834 89.2004 35.8639C88.2406 36.4444 87.1271 36.7347 85.8595 36.7347C84.6102 36.7347 83.4965 36.4444 82.5187 35.8639C81.5409 35.2834 80.7713 34.4853 80.21 33.4694Z" fill="#0D1117" style="fill:#0D1117;fill:color(display-p3 0.0510 0.0667 0.0902);fill-opacity:1;"/>
<path fill-rule="evenodd" clip-rule="evenodd" d="M98.743 26.0136C98.2541 27.2109 98.0096 28.5261 98.0096 29.9592C98.0096 31.3741 98.2541 32.6893 98.743 33.9048C99.2319 35.1202 99.9109 36.1723 100.78 37.0612C101.667 37.9501 102.718 38.6485 103.931 39.1565C105.144 39.6463 106.457 39.8912 107.869 39.8912C109.3 39.8912 110.612 39.6463 111.808 39.1565C113.021 38.6485 114.071 37.9501 114.959 37.0612C115.846 36.1723 116.533 35.1202 117.023 33.9048C117.512 32.6893 117.756 31.3741 117.756 29.9592C117.756 28.5261 117.512 27.2109 117.023 26.0136C116.533 24.8163 115.837 23.7823 114.931 22.9116C114.044 22.0227 113.003 21.3333 111.808 20.8435C110.612 20.3537 109.3 20.1088 107.869 20.1088C106.475 20.1088 105.171 20.3537 103.958 20.8435C102.763 21.3333 101.713 22.0227 100.807 22.9116C99.92 23.7823 99.2319 24.8163 98.743 26.0136ZM102.22 33.4694C101.676 32.4354 101.405 31.2653 101.405 29.9592C101.405 28.6531 101.676 27.4921 102.22 26.4762C102.781 25.4422 103.551 24.6349 104.528 24.0544C105.506 23.4739 106.62 23.1837 107.869 23.1837C109.154 23.1837 110.277 23.4739 111.237 24.0544C112.215 24.6349 112.976 25.4422 113.519 26.4762C114.061 27.4921 114.334 28.6531 114.334 29.9592C114.334 31.2653 114.052 32.4354 113.492 33.4694C112.949 34.4853 112.188 35.2834 111.21 35.8639C110.25 36.4444 109.136 36.7347 107.869 36.7347C106.62 36.7347 105.506 36.4444 104.528 35.8639C103.551 35.2834 102.781 34.4853 102.22 33.4694Z" fill="#0D1117" style="fill:#0D1117;fill:color(display-p3 0.0510 0.0667 0.0902);fill-opacity:1;"/>
<path fill-rule="evenodd" clip-rule="evenodd" d="M143.848 26.0136C143.359 27.2109 143.115 28.5261 143.115 29.9592C143.115 31.3741 143.359 32.6893 143.848 33.9048C144.337 35.1202 145.017 36.1723 145.886 37.0612C146.774 37.9501 147.823 38.6485 149.037 39.1565C150.25 39.6463 151.563 39.8912 152.975 39.8912C154.405 39.8912 155.718 39.6463 156.913 39.1565C158.127 38.6485 159.177 37.9501 160.064 37.0612C160.951 36.1723 161.64 35.1202 162.129 33.9048C162.618 32.6893 162.861 31.3741 162.861 29.9592C162.861 28.5261 162.618 27.2109 162.129 26.0136C161.64 24.8163 160.942 23.7823 160.037 22.9116C159.15 22.0227 158.109 21.3333 156.913 20.8435C155.718 20.3537 154.405 20.1088 152.975 20.1088C151.581 20.1088 150.276 20.3537 149.064 20.8435C147.868 21.3333 146.818 22.0227 145.913 22.9116C145.026 23.7823 144.337 24.8163 143.848 26.0136ZM147.325 33.4694C146.783 32.4354 146.51 31.2653 146.51 29.9592C146.51 28.6531 146.783 27.4921 147.325 26.4762C147.886 25.4422 148.656 24.6349 149.634 24.0544C150.612 23.4739 151.726 23.1837 152.975 23.1837C154.26 23.1837 155.383 23.4739 156.343 24.0544C157.32 24.6349 158.081 25.4422 158.625 26.4762C159.168 27.4921 159.439 28.6531 159.439 29.9592C159.439 31.2653 159.159 32.4354 158.598 33.4694C158.054 34.4853 157.293 35.2834 156.315 35.8639C155.356 36.4444 154.242 36.7347 152.975 36.7347C151.726 36.7347 150.612 36.4444 149.634 35.8639C148.656 35.2834 147.886 34.4853 147.325 33.4694Z" fill="#0D1117" style="fill:#0D1117;fill:color(display-p3 0.0510 0.0667 0.0902);fill-opacity:1;"/>
<path d="M165.125 20.4762H168.33V36.6395H175.881V39.5238H165.125V20.4762Z" fill="#0D1117" style="fill:#0D1117;fill:color(display-p3 0.0510 0.0667 0.0902);fill-opacity:1;"/>
</g>
<defs>
<clipPath id="clip0_2568_69395">
<rect width="175.881" height="60" fill="white" style="fill:white;fill-opacity:1;"/>
</clipPath>
</defs>
</svg>
