<svg width="209" height="60" viewBox="0 0 209 60" fill="none" xmlns="http://www.w3.org/2000/svg">
<mask id="mask0_2788_81444" style="mask-type:luminance" maskUnits="userSpaceOnUse" x="14" y="10" width="32" height="40">
<path d="M46 10H14V50H46V10Z" fill="white" style="fill:white;fill-opacity:1;"/>
</mask>
<g mask="url(#mask0_2788_81444)">
<path d="M38 42H22V26H38V42Z" fill="#BCBBBB" style="fill:#BCBBBB;fill:color(display-p3 0.7373 0.7333 0.7333);fill-opacity:1;"/>
<path d="M38 18H22V42H38V18ZM46 50H14V10H46V50Z" fill="#211E1E" style="fill:#211E1E;fill:color(display-p3 0.1294 0.1176 0.1176);fill-opacity:1;"/>
</g>
<g clip-path="url(#clip0_2788_81444)">
<path d="M75.1312 35.5715H67.7109V28.1429H75.1312V35.5715Z" fill="#CFCECD" style="fill:#CFCECD;fill:color(display-p3 0.8118 0.8078 0.8039);fill-opacity:1;"/>
<path d="M75.1304 24.4286H67.7102V35.5715H75.1304V24.4286ZM78.8406 39.2858H64V20.7143H78.8406V39.2858Z" fill="#656363" style="fill:#656363;fill:color(display-p3 0.3961 0.3882 0.3882);fill-opacity:1;"/>
<path d="M93.6809 35.5715H86.2607V28.1429H93.6809V35.5715Z" fill="#CFCECD" style="fill:#CFCECD;fill:color(display-p3 0.8118 0.8078 0.8039);fill-opacity:1;"/>
<path d="M86.2614 35.5715H93.6816V24.4286H86.2614V35.5715ZM97.3919 39.2858H86.2614V43H82.5513V20.7143H97.3919V39.2858Z" fill="#656363" style="fill:#656363;fill:color(display-p3 0.3961 0.3882 0.3882);fill-opacity:1;"/>
<path d="M115.942 31.8571V35.5713H104.812V31.8571H115.942Z" fill="#CFCECD" style="fill:#CFCECD;fill:color(display-p3 0.8118 0.8078 0.8039);fill-opacity:1;"/>
<path d="M115.942 31.8572H104.812V35.5715H115.942V39.2858H101.102V20.7143H115.942V31.8572ZM104.812 28.1429H112.232V24.4286H104.812V28.1429Z" fill="#656363" style="fill:#656363;fill:color(display-p3 0.3961 0.3882 0.3882);fill-opacity:1;"/>
<path d="M130.782 39.2858H123.361V28.1429H130.782V39.2858Z" fill="#CFCECD" style="fill:#CFCECD;fill:color(display-p3 0.8118 0.8078 0.8039);fill-opacity:1;"/>
<path d="M130.783 24.4286H123.363V39.2858H119.653V20.7143H130.783V24.4286ZM134.493 39.2858H130.783V24.4286H134.493V39.2858Z" fill="#656363" style="fill:#656363;fill:color(display-p3 0.3961 0.3882 0.3882);fill-opacity:1;"/>
<path d="M153.044 35.5715H141.914V28.1429H153.044V35.5715Z" fill="#CFCECD" style="fill:#CFCECD;fill:color(display-p3 0.8118 0.8078 0.8039);fill-opacity:1;"/>
<path d="M153.043 24.4286H141.912V35.5715H153.043V39.2858H138.202V20.7143H153.043V24.4286Z" fill="#211E1E" style="fill:#211E1E;fill:color(display-p3 0.1294 0.1176 0.1176);fill-opacity:1;"/>
<path d="M167.883 35.5715H160.463V28.1429H167.883V35.5715Z" fill="#CFCECD" style="fill:#CFCECD;fill:color(display-p3 0.8118 0.8078 0.8039);fill-opacity:1;"/>
<path d="M167.884 24.4286H160.464V35.5715H167.884V24.4286ZM171.594 39.2858H156.753V20.7143H171.594V39.2858Z" fill="#211E1E" style="fill:#211E1E;fill:color(display-p3 0.1294 0.1176 0.1176);fill-opacity:1;"/>
<path d="M186.434 35.5715H179.014V28.1429H186.434V35.5715Z" fill="#CFCECD" style="fill:#CFCECD;fill:color(display-p3 0.8118 0.8078 0.8039);fill-opacity:1;"/>
<path d="M186.434 24.4286H179.014V35.5714H186.434V24.4286ZM190.144 39.2857H175.304V20.7143H186.434V17H190.144V39.2857Z" fill="#211E1E" style="fill:#211E1E;fill:color(display-p3 0.1294 0.1176 0.1176);fill-opacity:1;"/>
<path d="M208.695 31.8571V35.5713H197.564V31.8571H208.695Z" fill="#CFCECD" style="fill:#CFCECD;fill:color(display-p3 0.8118 0.8078 0.8039);fill-opacity:1;"/>
<path d="M197.565 24.4286V28.1429H204.985V24.4286H197.565ZM208.696 31.8572H197.565V35.5715H208.696V39.2858H193.855V20.7143H208.696V31.8572Z" fill="#211E1E" style="fill:#211E1E;fill:color(display-p3 0.1294 0.1176 0.1176);fill-opacity:1;"/>
</g>
<defs>
<clipPath id="clip0_2788_81444">
<rect width="144.696" height="26" fill="white" style="fill:white;fill-opacity:1;" transform="translate(64 17)"/>
</clipPath>
</defs>
</svg>
