<svg width="160" height="60" viewBox="0 0 160 60" fill="none" xmlns="http://www.w3.org/2000/svg">
<path d="M47.1245 26.4625C47.4582 25.4731 47.6284 24.4372 47.6286 23.3944C47.6285 21.669 47.1627 19.9747 46.2791 18.4858C44.5036 15.4364 41.21 13.5537 37.6454 13.5537C36.9432 13.5537 36.2429 13.6269 35.5562 13.772C34.6327 12.7453 33.499 11.9234 32.23 11.3605C30.9609 10.7977 29.5854 10.5066 28.1941 10.5066H28.1316L28.1081 10.5067C23.7908 10.5067 19.9621 13.2555 18.6349 17.3077C17.2611 17.5854 15.9633 18.1494 14.8283 18.962C13.6933 19.7746 12.7473 20.817 12.0537 22.0196C11.1728 23.5175 10.7085 25.2185 10.708 26.9503C10.7083 29.3842 11.624 31.7314 13.2777 33.5373C12.9439 34.5267 12.7736 35.5626 12.7735 36.6054C12.7736 38.3308 13.2394 40.0251 14.123 41.514C15.1737 43.3191 16.7783 44.7483 18.7054 45.5954C20.6325 46.4426 22.7825 46.664 24.8453 46.2277C25.769 47.2544 26.9028 48.0763 28.1719 48.6392C29.441 49.202 30.8166 49.4931 32.208 49.4932H32.2705L32.2959 49.4931C36.6155 49.4931 40.443 46.7442 41.7702 42.6883C43.144 42.4105 44.4418 41.8465 45.5768 41.0339C46.7118 40.2212 47.6579 39.1788 48.3516 37.9763C49.2315 36.4797 49.6949 34.7801 49.6946 33.0499C49.6943 30.6161 48.7786 28.2689 47.125 26.463L47.1245 26.4625ZM32.273 46.9444H32.2628C30.5343 46.9438 28.8607 46.3455 27.533 45.2535C27.6119 45.2116 27.6898 45.1681 27.7667 45.1229L35.634 40.639C35.8304 40.5287 35.9936 40.3691 36.1072 40.1764C36.2208 39.9838 36.2807 39.7648 36.2807 39.5419V28.5907L39.6061 30.4852C39.6235 30.4938 39.6386 30.5065 39.6498 30.5222C39.6611 30.5379 39.6683 30.5561 39.6708 30.5752V39.6382C39.6662 43.6676 36.357 46.9362 32.273 46.9444ZM16.3638 40.24C15.7139 39.1314 15.3716 37.8733 15.3711 36.5926C15.3711 36.1749 15.4081 35.756 15.4801 35.3445C15.5386 35.379 15.6407 35.4405 15.7139 35.4821L23.5813 39.9659C23.7774 40.0789 24.0005 40.1384 24.2276 40.1384C24.4547 40.1383 24.6777 40.0787 24.8738 39.9657L34.479 34.4934V38.2825L34.4792 38.2891C34.4792 38.3073 34.4749 38.3253 34.4666 38.3416C34.4584 38.3579 34.4464 38.3721 34.4316 38.3831L26.4784 42.9139C25.3531 43.553 24.0775 43.8895 22.7791 43.8898C21.4793 43.8897 20.2025 43.5523 19.0765 42.9117C17.9505 42.271 17.015 41.3495 16.3638 40.2396V40.24ZM14.2941 23.2936C15.1581 21.8127 16.5225 20.6788 18.1484 20.0904C18.1484 20.1572 18.1445 20.2756 18.1445 20.3578V29.3257L18.1444 29.333C18.1444 29.5557 18.2042 29.7744 18.3176 29.9669C18.431 30.1594 18.594 30.3189 18.7901 30.4291L28.3953 35.9006L25.0701 37.7951C25.0537 37.8058 25.0349 37.8123 25.0153 37.814C24.9958 37.8158 24.9761 37.8128 24.958 37.8052L17.004 33.2705C15.8796 32.6278 14.9461 31.7048 14.2972 30.594C13.6482 29.4832 13.3065 28.2236 13.3064 26.9414C13.3069 25.6613 13.6476 24.4036 14.2945 23.294L14.2941 23.2936ZM41.615 29.5667L32.0098 24.0946L35.3351 22.2007C35.3515 22.1901 35.3703 22.1835 35.3899 22.1818C35.4095 22.18 35.4292 22.1831 35.4473 22.1907L43.4011 26.7215C44.5264 27.3632 45.4609 28.2857 46.1107 29.3964C46.7604 30.5071 47.1026 31.7669 47.1029 33.0494C47.1029 36.1103 45.1671 38.8493 42.2564 39.9064V30.6704C42.2568 30.667 42.2568 30.6635 42.2568 30.6601C42.2568 30.4383 42.1974 30.2203 42.0847 30.0284C41.972 29.8364 41.81 29.6772 41.615 29.5667ZM44.9247 24.6517C44.8474 24.6049 44.7695 24.5591 44.691 24.5142L36.8237 20.0302C36.6275 19.9174 36.4046 19.858 36.1776 19.8579C35.9505 19.858 35.7276 19.9174 35.5314 20.0302L25.9261 25.5025V21.7133L25.9259 21.7068C25.9259 21.6698 25.9437 21.6349 25.9737 21.6127L33.9268 17.0857C35.0518 16.4458 36.3275 16.1089 37.626 16.1089C41.7153 16.1089 45.0315 19.381 45.0315 23.4158C45.0313 23.8298 44.9956 24.2431 44.9247 24.6513V24.6517ZM24.1182 31.4052L20.7921 29.5107C20.7747 29.5021 20.7597 29.4894 20.7484 29.4737C20.7371 29.458 20.7299 29.4398 20.7274 29.4207V20.3575C20.7292 16.3249 24.0455 13.0555 28.1329 13.0555C29.8641 13.0559 31.5405 13.6543 32.8713 14.7468C32.8114 14.7791 32.707 14.836 32.6376 14.8775L24.7702 19.3614C24.5739 19.4715 24.4107 19.6311 24.2971 19.8237C24.1836 20.0163 24.1237 20.2351 24.1237 20.458V20.4652L24.1182 31.4052ZM25.9246 27.5624L30.2026 25.1244L34.4805 27.5607V32.4351L30.2026 34.8716L25.9246 32.4351V27.5624Z" fill="black" style="fill:black;fill-opacity:1;"/>
<g clip-path="url(#clip0_2568_69452)">
<path d="M74.2 17.1331C68.59 17.1331 64 21.723 64 27.333C64 32.943 68.59 37.533 74.2 37.533C79.81 37.533 84.4 32.9714 84.4 27.333C84.4 21.6947 79.8383 17.1331 74.2 17.1331ZM74.2 33.878C70.715 33.878 67.91 31.0164 67.91 27.333C67.91 23.6497 70.715 20.788 74.2 20.788C77.685 20.788 80.49 23.6497 80.49 27.333C80.49 31.0164 77.685 33.878 74.2 33.878Z" fill="black" style="fill:black;fill-opacity:1;"/>
<path d="M94.7128 22.7996C92.8711 22.7996 91.0861 23.5362 90.1511 24.7829V23.0829H86.4678V42.9162H90.1511V35.7479C91.0861 36.9096 92.8144 37.5329 94.7128 37.5329C98.6793 37.5329 101.796 34.4162 101.796 30.1662C101.796 25.9162 98.6793 22.7996 94.7128 22.7996ZM94.0894 34.3312C91.9928 34.3312 90.1228 32.6879 90.1228 30.1662C90.1228 27.6446 91.9928 26.0012 94.0894 26.0012C96.1861 26.0012 98.056 27.6446 98.056 30.1662C98.056 32.6879 96.1861 34.3312 94.0894 34.3312Z" fill="black" style="fill:black;fill-opacity:1;"/>
<path d="M110.467 22.7996C106.443 22.7996 103.27 25.9446 103.27 30.1662C103.27 34.3879 106.047 37.5329 110.58 37.5329C114.292 37.5329 116.672 35.2946 117.408 32.7729H113.81C113.357 33.8212 112.082 34.5579 110.552 34.5579C108.653 34.5579 107.208 33.2262 106.868 31.3279H117.578V29.8829C117.578 26.0296 114.887 22.7996 110.467 22.7996ZM106.897 28.7212C107.293 26.9362 108.767 25.7746 110.552 25.7746C112.45 25.7746 113.895 27.0212 114.065 28.7212H106.897Z" fill="black" style="fill:black;fill-opacity:1;"/>
<path d="M127.382 22.7996C125.739 22.7996 124.01 23.5362 123.217 24.7546V23.0829H119.534V37.2496H123.217V29.6279C123.217 27.4179 124.407 25.9729 126.334 25.9729C128.119 25.9729 129.082 27.3329 129.082 29.2312V37.2496H132.765V28.6362C132.765 25.1229 130.612 22.7996 127.382 22.7996Z" fill="black" style="fill:black;fill-opacity:1;"/>
<path d="M142.199 17.4166L134.18 37.25H138.119L139.819 32.915H148.942L150.642 37.25H154.637L146.675 17.4166H142.199ZM141.094 29.6283L144.38 21.3266L147.639 29.6283H141.094Z" fill="black" style="fill:black;fill-opacity:1;"/>
<path d="M159.879 17.4166H156.139V37.25H159.879V17.4166Z" fill="black" style="fill:black;fill-opacity:1;"/>
</g>
<defs>
<clipPath id="clip0_2568_69452">
<rect width="96" height="26" fill="white" style="fill:white;fill-opacity:1;" transform="translate(64 17)"/>
</clipPath>
</defs>
</svg>
